<svg width="966" height="300" viewBox="0 0 966 300" fill="none" xmlns="http://www.w3.org/2000/svg">
<mask id="path-1-inside-1_233_45" fill="white">
<path d="M7 20H76.1C83.1 20 89.0667 20.9667 94 22.9C98.9333 24.7667 102.967 27.3 106.1 30.5C109.233 33.7 111.5 37.4333 112.9 41.7C114.367 45.9667 115.1 50.4667 115.1 55.2C115.1 59.9333 114.367 64.4333 112.9 68.7C111.5 72.9 109.233 76.6 106.1 79.8C102.967 82.9333 98.9333 85.4333 94 87.3C89.0667 89.1 83.1 90 76.1 90H7V20ZM31 38.8V71.3H70.6C74.6 71.3 77.9333 70.9 80.6 70.1C83.2667 69.2333 85.3667 68.0667 86.9 66.6C88.4333 65.1333 89.5 63.4333 90.1 61.5C90.7667 59.5 91.1 57.3667 91.1 55.1C91.1 52.8333 90.7667 50.7333 90.1 48.8C89.5 46.8 88.4333 45.0667 86.9 43.6C85.3667 42.1333 83.2667 40.9667 80.6 40.1C77.9333 39.2333 74.6 38.8 70.6 38.8H31ZM235.766 90H208.466L201.666 79.5H149.066L142.366 90H115.066L160.166 20H190.666L235.766 90ZM160.566 61.5H190.166L175.366 38.5L160.566 61.5ZM239.813 90V20H274.413L304.313 65.9L333.413 20H368.513V90H344.513V42.8L314.613 90H294.513L263.813 42.9V90H239.813ZM493.188 90H465.888L459.088 79.5H406.488L399.788 90H372.488L417.588 20H448.088L493.188 90ZM417.988 61.5H447.588L432.788 38.5L417.988 61.5ZM542.254 20H619.954C627.287 20 632.821 21.6667 636.554 25C640.354 28.3333 642.254 32.8333 642.254 38.5C642.254 40.0333 641.987 41.6 641.454 43.2C640.987 44.8 640.321 46.3333 639.454 47.8C638.587 49.2 637.554 50.4667 636.354 51.6C635.154 52.6667 633.887 53.5 632.554 54.1C634.821 54.7 636.721 55.6 638.254 56.8C639.854 57.9333 641.121 59.2333 642.054 60.7C643.054 62.1 643.754 63.5667 644.154 65.1C644.554 66.6333 644.754 68.0333 644.754 69.3C644.754 72.7 644.287 75.7 643.354 78.3C642.421 80.9 640.854 83.0667 638.654 84.8C636.454 86.5333 633.554 87.8333 629.954 88.7C626.421 89.5667 622.054 90 616.854 90H542.254V20ZM566.254 71H611.354C614.221 71 616.087 70.7667 616.954 70.3C617.887 69.8333 618.354 68.9 618.354 67.5C618.354 66.1667 617.887 65.2667 616.954 64.8C616.087 64.3333 614.221 64.1 611.354 64.1H566.254V71ZM566.254 46H608.854C611.721 46 613.587 45.7667 614.454 45.3C615.387 44.8333 615.854 43.9 615.854 42.5C615.854 41.1667 615.387 40.2667 614.454 39.8C613.587 39.3333 611.721 39.1 608.854 39.1H566.254V46ZM679.73 39V46H747.03V64H679.73V71H753.23V90H655.73V20H753.23V39H679.73ZM818.962 39V90H794.962V39H756.762V20H857.062V39H818.962ZM889.105 39V46H956.405V64H889.105V71H962.605V90H865.105V20H962.605V39H889.105Z"/>
</mask>
<path d="M7 20V19H6V20H7ZM94 22.9L93.6351 23.8311L93.6461 23.8353L94 22.9ZM106.1 30.5L106.815 29.8004L106.815 29.8004L106.1 30.5ZM112.9 41.7L111.95 42.0118L111.954 42.0251L112.9 41.7ZM112.9 68.7L111.954 68.3749L111.951 68.3838L112.9 68.7ZM106.1 79.8L106.807 80.5071L106.815 80.4996L106.1 79.8ZM94 87.3L94.3428 88.2395L94.3539 88.2353L94 87.3ZM7 90H6V91H7V90ZM31 38.8V37.8H30V38.8H31ZM31 71.3H30V72.3H31V71.3ZM80.6 70.1L80.8874 71.0578L80.8983 71.0546L80.9091 71.051L80.6 70.1ZM90.1 61.5L89.1513 61.1838L89.148 61.1936L89.1449 61.2036L90.1 61.5ZM90.1 48.8L89.1422 49.0873L89.148 49.1068L89.1546 49.126L90.1 48.8ZM86.9 43.6L86.2088 44.3226L86.2088 44.3226L86.9 43.6ZM80.6 40.1L80.2909 41.051L80.2909 41.051L80.6 40.1ZM7 21H76.1V19H7V21ZM76.1 21C83.0131 21 88.8488 21.9553 93.6351 23.8311L94.3649 21.9689C89.2846 19.978 83.187 19 76.1 19V21ZM93.6461 23.8353C98.4675 25.6596 102.37 28.1203 105.386 31.1996L106.815 29.8004C103.563 26.4797 99.3992 23.8737 94.3539 21.9647L93.6461 23.8353ZM105.386 31.1996C108.411 34.2898 110.598 37.8903 111.95 42.0118L113.85 41.3882C112.403 36.9763 110.055 33.1102 106.815 29.8004L105.386 31.1996ZM111.954 42.0251C113.383 46.1821 114.1 50.5718 114.1 55.2H116.1C116.1 50.3615 115.35 45.7513 113.846 41.3749L111.954 42.0251ZM114.1 55.2C114.1 59.8282 113.383 64.2179 111.954 68.3749L113.846 69.0251C115.35 64.6487 116.1 60.0385 116.1 55.2H114.1ZM111.951 68.3838C110.6 72.4381 108.414 76.0075 105.385 79.1004L106.815 80.4996C110.053 77.1925 112.4 73.3619 113.849 69.0162L111.951 68.3838ZM105.393 79.0929C102.377 82.1088 98.4717 84.5388 93.6461 86.3647L94.3539 88.2353C99.3949 86.3279 103.556 83.7579 106.807 80.5071L105.393 79.0929ZM93.6572 86.3606C88.8635 88.1096 83.0197 89 76.1 89V91C83.1803 91 89.2698 90.0904 94.3428 88.2394L93.6572 86.3606ZM76.1 89H7V91H76.1V89ZM8 90V20H6V90H8ZM30 38.8V71.3H32V38.8H30ZM31 72.3H70.6V70.3H31V72.3ZM70.6 72.3C74.6587 72.3 78.0966 71.8951 80.8874 71.0578L80.3127 69.1422C77.7701 69.9049 74.5413 70.3 70.6 70.3V72.3ZM80.9091 71.051C83.6747 70.1522 85.9202 68.921 87.5912 67.3226L86.2088 65.8774C84.8131 67.2123 82.8586 68.3145 80.2909 69.149L80.9091 71.051ZM87.5912 67.3226C89.2411 65.7445 90.4023 63.8998 91.0551 61.7964L89.1449 61.2036C88.5977 62.9668 87.6255 64.5222 86.2088 65.8774L87.5912 67.3226ZM91.0487 61.8162C91.7518 59.7069 92.1 57.4661 92.1 55.1H90.1C90.1 57.2673 89.7815 59.2931 89.1513 61.1838L91.0487 61.8162ZM92.1 55.1C92.1 52.7343 91.7519 50.5229 91.0454 48.474L89.1546 49.126C89.7814 50.9437 90.1 52.9323 90.1 55.1H92.1ZM91.0578 48.5126C90.4073 46.3441 89.2475 44.4616 87.5912 42.8774L86.2088 44.3226C87.6192 45.6717 88.5927 47.2558 89.1422 49.0873L91.0578 48.5126ZM87.5912 42.8774C85.9202 41.279 83.6747 40.0478 80.9091 39.149L80.2909 41.051C82.8586 41.8855 84.8131 42.9877 86.2088 44.3226L87.5912 42.8774ZM80.9091 39.149C78.11 38.2393 74.6641 37.8 70.6 37.8V39.8C74.5359 39.8 77.7567 40.2274 80.2909 41.051L80.9091 39.149ZM70.6 37.8H31V39.8H70.6V37.8ZM235.766 90V91H237.6L236.607 89.4584L235.766 90ZM208.466 90L207.627 90.5436L207.923 91H208.466V90ZM201.666 79.5L202.506 78.9564L202.21 78.5H201.666V79.5ZM149.066 79.5V78.5H148.518L148.223 78.9621L149.066 79.5ZM142.366 90V91H142.915L143.209 90.5379L142.366 90ZM115.066 90L114.226 89.4584L113.233 91H115.066V90ZM160.166 20V19H159.621L159.326 19.4584L160.166 20ZM190.666 20L191.507 19.4584L191.212 19H190.666V20ZM160.566 61.5L159.725 60.9589L158.734 62.5H160.566V61.5ZM190.166 61.5V62.5H191.999L191.007 60.9589L190.166 61.5ZM175.366 38.5L176.207 37.9589L175.366 36.652L174.525 37.9589L175.366 38.5ZM235.766 89H208.466V91H235.766V89ZM209.306 89.4564L202.506 78.9564L200.827 80.0436L207.627 90.5436L209.306 89.4564ZM201.666 78.5H149.066V80.5H201.666V78.5ZM148.223 78.9621L141.523 89.4621L143.209 90.5379L149.909 80.0379L148.223 78.9621ZM142.366 89H115.066V91H142.366V89ZM115.907 90.5416L161.007 20.5416L159.326 19.4584L114.226 89.4584L115.907 90.5416ZM160.166 21H190.666V19H160.166V21ZM189.826 20.5416L234.926 90.5416L236.607 89.4584L191.507 19.4584L189.826 20.5416ZM160.566 62.5H190.166V60.5H160.566V62.5ZM191.007 60.9589L176.207 37.9589L174.525 39.0411L189.325 62.0411L191.007 60.9589ZM174.525 37.9589L159.725 60.9589L161.407 62.0411L176.207 39.0411L174.525 37.9589ZM239.813 90H238.813V91H239.813V90ZM239.813 20V19H238.813V20H239.813ZM274.413 20L275.25 19.4542L274.955 19H274.413V20ZM304.313 65.9L303.475 66.4458L304.324 67.7496L305.157 66.4354L304.313 65.9ZM333.413 20V19H332.862L332.568 19.4645L333.413 20ZM368.513 20H369.513V19H368.513V20ZM368.513 90V91H369.513V90H368.513ZM344.513 90H343.513V91H344.513V90ZM344.513 42.8H345.513V39.3527L343.668 42.2649L344.513 42.8ZM314.613 90V91H315.163L315.457 90.5351L314.613 90ZM294.513 90L293.675 90.5461L293.971 91H294.513V90ZM263.813 42.9L264.65 42.3539L262.813 39.5345V42.9H263.813ZM263.813 90V91H264.813V90H263.813ZM240.813 90V20H238.813V90H240.813ZM239.813 21H274.413V19H239.813V21ZM273.575 20.5458L303.475 66.4458L305.15 65.3542L275.25 19.4542L273.575 20.5458ZM305.157 66.4354L334.257 20.5354L332.568 19.4645L303.468 65.3646L305.157 66.4354ZM333.413 21H368.513V19H333.413V21ZM367.513 20V90H369.513V20H367.513ZM368.513 89H344.513V91H368.513V89ZM345.513 90V42.8H343.513V90H345.513ZM343.668 42.2649L313.768 89.4649L315.457 90.5351L345.357 43.3351L343.668 42.2649ZM314.613 89H294.513V91H314.613V89ZM295.35 89.4539L264.65 42.3539L262.975 43.446L293.675 90.5461L295.35 89.4539ZM262.813 42.9V90H264.813V42.9H262.813ZM263.813 89H239.813V91H263.813V89ZM493.188 90V91H495.022L494.029 89.4584L493.188 90ZM465.888 90L465.049 90.5436L465.345 91H465.888V90ZM459.088 79.5L459.928 78.9564L459.632 78.5H459.088V79.5ZM406.488 79.5V78.5H405.94L405.645 78.9621L406.488 79.5ZM399.788 90V91H400.336L400.631 90.5379L399.788 90ZM372.488 90L371.648 89.4584L370.654 91H372.488V90ZM417.588 20V19H417.043L416.748 19.4584L417.588 20ZM448.088 20L448.929 19.4584L448.634 19H448.088V20ZM417.988 61.5L417.147 60.9589L416.156 62.5H417.988V61.5ZM447.588 61.5V62.5H449.421L448.429 60.9589L447.588 61.5ZM432.788 38.5L433.629 37.9589L432.788 36.652L431.947 37.9589L432.788 38.5ZM493.188 89H465.888V91H493.188V89ZM466.728 89.4564L459.928 78.9564L458.249 80.0436L465.049 90.5436L466.728 89.4564ZM459.088 78.5H406.488V80.5H459.088V78.5ZM405.645 78.9621L398.945 89.4621L400.631 90.5379L407.331 80.0379L405.645 78.9621ZM399.788 89H372.488V91H399.788V89ZM373.329 90.5416L418.429 20.5416L416.748 19.4584L371.648 89.4584L373.329 90.5416ZM417.588 21H448.088V19H417.588V21ZM447.248 20.5416L492.348 90.5416L494.029 89.4584L448.929 19.4584L447.248 20.5416ZM417.988 62.5H447.588V60.5H417.988V62.5ZM448.429 60.9589L433.629 37.9589L431.947 39.0411L446.747 62.0411L448.429 60.9589ZM431.947 37.9589L417.147 60.9589L418.829 62.0411L433.629 39.0411L431.947 37.9589ZM542.254 20V19H541.254V20H542.254ZM636.554 25L635.888 25.746L635.894 25.7518L636.554 25ZM641.454 43.2L640.505 42.8838L640.499 42.9018L640.494 42.92L641.454 43.2ZM639.454 47.8L640.304 48.3264L640.31 48.3176L640.315 48.3087L639.454 47.8ZM636.354 51.6L637.018 52.3474L637.03 52.3374L637.041 52.327L636.354 51.6ZM632.554 54.1L632.144 53.1881L629.572 54.3452L632.298 55.0667L632.554 54.1ZM638.254 56.8L637.638 57.5875L637.656 57.6022L637.676 57.616L638.254 56.8ZM642.054 60.7L641.21 61.2369L641.225 61.2595L641.24 61.2812L642.054 60.7ZM644.154 65.1L645.122 64.8476L645.122 64.8476L644.154 65.1ZM643.354 78.3L644.295 78.6379L644.295 78.6379L643.354 78.3ZM638.654 84.8L638.035 84.0145L638.654 84.8ZM629.954 88.7L629.72 87.7278L629.716 87.7288L629.954 88.7ZM542.254 90H541.254V91H542.254V90ZM566.254 71H565.254V72H566.254V71ZM616.954 70.3L616.507 69.4056L616.493 69.4123L616.48 69.4195L616.954 70.3ZM616.954 64.8L616.48 65.6805L616.493 65.6877L616.507 65.6944L616.954 64.8ZM566.254 64.1V63.1H565.254V64.1H566.254ZM566.254 46H565.254V47H566.254V46ZM614.454 45.3L614.007 44.4056L613.993 44.4123L613.98 44.4195L614.454 45.3ZM614.454 39.8L613.98 40.6805L613.993 40.6876L614.007 40.6944L614.454 39.8ZM566.254 39.1V38.1H565.254V39.1H566.254ZM542.254 21H619.954V19H542.254V21ZM619.954 21C627.154 21 632.407 22.638 635.888 25.7459L637.22 24.2541C633.234 20.6953 627.421 19 619.954 19V21ZM635.894 25.7518C639.45 28.871 641.254 33.0824 641.254 38.5H643.254C643.254 32.5843 641.257 27.7957 637.213 24.2482L635.894 25.7518ZM641.254 38.5C641.254 39.9157 641.008 41.3756 640.505 42.8838L642.403 43.5162C642.967 41.8244 643.254 40.151 643.254 38.5H641.254ZM640.494 42.92C640.051 44.4382 639.418 45.8948 638.593 47.2913L640.315 48.3087C641.223 46.7718 641.923 45.1618 642.414 43.48L640.494 42.92ZM638.604 47.2736C637.783 48.5998 636.804 49.799 635.667 50.873L637.041 52.327C638.303 51.1343 639.392 49.8002 640.304 48.3264L638.604 47.2736ZM635.69 50.8526C634.558 51.8584 633.376 52.6336 632.144 53.1881L632.964 55.0119C634.399 54.3664 635.75 53.4749 637.018 52.3474L635.69 50.8526ZM632.298 55.0667C634.46 55.639 636.23 56.4863 637.638 57.5875L638.87 56.0125C637.211 54.7137 635.181 53.761 632.81 53.1333L632.298 55.0667ZM637.676 57.616C639.184 58.684 640.355 59.8927 641.21 61.2369L642.898 60.1631C641.886 58.5739 640.524 57.1827 638.832 55.984L637.676 57.616ZM641.24 61.2812C642.175 62.5905 642.82 63.9469 643.186 65.3524L645.122 64.8476C644.688 63.1864 643.932 61.6095 642.868 60.1188L641.24 61.2812ZM643.186 65.3524C643.57 66.823 643.754 68.1367 643.754 69.3H645.754C645.754 67.93 645.538 66.4437 645.122 64.8476L643.186 65.3524ZM643.754 69.3C643.754 72.6105 643.299 75.4923 642.413 77.9621L644.295 78.6379C645.275 75.9077 645.754 72.7895 645.754 69.3H643.754ZM642.413 77.9621C641.544 80.3831 640.09 82.3955 638.035 84.0145L639.273 85.5855C641.618 83.7378 643.297 81.4169 644.295 78.6379L642.413 77.9621ZM638.035 84.0145C635.979 85.6347 633.223 86.8845 629.72 87.7278L630.188 89.6722C633.885 88.7822 636.929 87.432 639.273 85.5855L638.035 84.0145ZM629.716 87.7288C626.286 88.5701 622.005 89 616.854 89V91C622.103 91 626.555 90.5632 630.192 89.6712L629.716 87.7288ZM616.854 89H542.254V91H616.854V89ZM543.254 90V20H541.254V90H543.254ZM566.254 72H611.354V70H566.254V72ZM611.354 72C612.81 72 614.038 71.941 615.028 71.8173C615.993 71.6966 616.827 71.5041 617.428 71.1805L616.48 69.4195C616.214 69.5626 615.682 69.72 614.78 69.8327C613.903 69.9423 612.765 70 611.354 70V72ZM617.401 71.1944C618.79 70.5 619.354 69.1278 619.354 67.5H617.354C617.354 68.6722 616.985 69.1667 616.507 69.4056L617.401 71.1944ZM619.354 67.5C619.354 65.9129 618.772 64.5911 617.401 63.9056L616.507 65.6944C617.002 65.9422 617.354 66.4205 617.354 67.5H619.354ZM617.428 63.9195C616.827 63.5959 615.993 63.4033 615.028 63.2827C614.038 63.159 612.81 63.1 611.354 63.1V65.1C612.765 65.1 613.903 65.1577 614.78 65.2673C615.682 65.38 616.214 65.5374 616.48 65.6805L617.428 63.9195ZM611.354 63.1H566.254V65.1H611.354V63.1ZM565.254 64.1V71H567.254V64.1H565.254ZM566.254 47H608.854V45H566.254V47ZM608.854 47C610.31 47 611.538 46.941 612.528 46.8173C613.493 46.6966 614.327 46.5041 614.928 46.1805L613.98 44.4195C613.714 44.5626 613.182 44.72 612.28 44.8327C611.403 44.9423 610.265 45 608.854 45V47ZM614.901 46.1944C616.29 45.5 616.854 44.1278 616.854 42.5H614.854C614.854 43.6722 614.485 44.1667 614.007 44.4056L614.901 46.1944ZM616.854 42.5C616.854 40.9129 616.272 39.5911 614.901 38.9056L614.007 40.6944C614.502 40.9422 614.854 41.4205 614.854 42.5H616.854ZM614.928 38.9195C614.327 38.5959 613.493 38.4033 612.528 38.2827C611.538 38.159 610.31 38.1 608.854 38.1V40.1C610.265 40.1 611.403 40.1577 612.28 40.2673C613.182 40.38 613.714 40.5374 613.98 40.6805L614.928 38.9195ZM608.854 38.1H566.254V40.1H608.854V38.1ZM565.254 39.1V46H567.254V39.1H565.254ZM679.73 39V38H678.73V39H679.73ZM679.73 46H678.73V47H679.73V46ZM747.03 46H748.03V45H747.03V46ZM747.03 64V65H748.03V64H747.03ZM679.73 64V63H678.73V64H679.73ZM679.73 71H678.73V72H679.73V71ZM753.23 71H754.23V70H753.23V71ZM753.23 90V91H754.23V90H753.23ZM655.73 90H654.73V91H655.73V90ZM655.73 20V19H654.73V20H655.73ZM753.23 20H754.23V19H753.23V20ZM753.23 39V40H754.23V39H753.23ZM678.73 39V46H680.73V39H678.73ZM679.73 47H747.03V45H679.73V47ZM746.03 46V64H748.03V46H746.03ZM747.03 63H679.73V65H747.03V63ZM678.73 64V71H680.73V64H678.73ZM679.73 72H753.23V70H679.73V72ZM752.23 71V90H754.23V71H752.23ZM753.23 89H655.73V91H753.23V89ZM656.73 90V20H654.73V90H656.73ZM655.73 21H753.23V19H655.73V21ZM752.23 20V39H754.23V20H752.23ZM753.23 38H679.73V40H753.23V38ZM818.962 39V38H817.962V39H818.962ZM818.962 90V91H819.962V90H818.962ZM794.962 90H793.962V91H794.962V90ZM794.962 39H795.962V38H794.962V39ZM756.762 39H755.762V40H756.762V39ZM756.762 20V19H755.762V20H756.762ZM857.062 20H858.062V19H857.062V20ZM857.062 39V40H858.062V39H857.062ZM817.962 39V90H819.962V39H817.962ZM818.962 89H794.962V91H818.962V89ZM795.962 90V39H793.962V90H795.962ZM794.962 38H756.762V40H794.962V38ZM757.762 39V20H755.762V39H757.762ZM756.762 21H857.062V19H756.762V21ZM856.062 20V39H858.062V20H856.062ZM857.062 38H818.962V40H857.062V38ZM889.105 39V38H888.105V39H889.105ZM889.105 46H888.105V47H889.105V46ZM956.405 46H957.405V45H956.405V46ZM956.405 64V65H957.405V64H956.405ZM889.105 64V63H888.105V64H889.105ZM889.105 71H888.105V72H889.105V71ZM962.605 71H963.605V70H962.605V71ZM962.605 90V91H963.605V90H962.605ZM865.105 90H864.105V91H865.105V90ZM865.105 20V19H864.105V20H865.105ZM962.605 20H963.605V19H962.605V20ZM962.605 39V40H963.605V39H962.605ZM888.105 39V46H890.105V39H888.105ZM889.105 47H956.405V45H889.105V47ZM955.405 46V64H957.405V46H955.405ZM956.405 63H889.105V65H956.405V63ZM888.105 64V71H890.105V64H888.105ZM889.105 72H962.605V70H889.105V72ZM961.605 71V90H963.605V71H961.605ZM962.605 89H865.105V91H962.605V89ZM866.105 90V20H864.105V90H866.105ZM865.105 21H962.605V19H865.105V21ZM961.605 20V39H963.605V20H961.605ZM962.605 38H889.105V40H962.605V38Z" fill="white" mask="url(#path-1-inside-1_233_45)"/>
<path d="M7 120H76.1C83.1 120 89.0667 120.967 94 122.9C98.9333 124.767 102.967 127.3 106.1 130.5C109.233 133.7 111.5 137.433 112.9 141.7C114.367 145.967 115.1 150.467 115.1 155.2C115.1 159.933 114.367 164.433 112.9 168.7C111.5 172.9 109.233 176.6 106.1 179.8C102.967 182.933 98.9333 185.433 94 187.3C89.0667 189.1 83.1 190 76.1 190H7V120ZM31 138.8V171.3H70.6C74.6 171.3 77.9333 170.9 80.6 170.1C83.2667 169.233 85.3667 168.067 86.9 166.6C88.4333 165.133 89.5 163.433 90.1 161.5C90.7667 159.5 91.1 157.367 91.1 155.1C91.1 152.833 90.7667 150.733 90.1 148.8C89.5 146.8 88.4333 145.067 86.9 143.6C85.3667 142.133 83.2667 140.967 80.6 140.1C77.9333 139.233 74.6 138.8 70.6 138.8H31ZM235.766 190H208.466L201.666 179.5H149.066L142.366 190H115.066L160.166 120H190.666L235.766 190ZM160.566 161.5H190.166L175.366 138.5L160.566 161.5ZM239.813 190V120H274.413L304.313 165.9L333.413 120H368.513V190H344.513V142.8L314.613 190H294.513L263.813 142.9V190H239.813ZM493.188 190H465.888L459.088 179.5H406.488L399.788 190H372.488L417.588 120H448.088L493.188 190ZM417.988 161.5H447.588L432.788 138.5L417.988 161.5ZM542.254 120H619.954C627.287 120 632.821 121.667 636.554 125C640.354 128.333 642.254 132.833 642.254 138.5C642.254 140.033 641.987 141.6 641.454 143.2C640.987 144.8 640.321 146.333 639.454 147.8C638.587 149.2 637.554 150.467 636.354 151.6C635.154 152.667 633.887 153.5 632.554 154.1C634.821 154.7 636.721 155.6 638.254 156.8C639.854 157.933 641.121 159.233 642.054 160.7C643.054 162.1 643.754 163.567 644.154 165.1C644.554 166.633 644.754 168.033 644.754 169.3C644.754 172.7 644.287 175.7 643.354 178.3C642.421 180.9 640.854 183.067 638.654 184.8C636.454 186.533 633.554 187.833 629.954 188.7C626.421 189.567 622.054 190 616.854 190H542.254V120ZM566.254 171H611.354C614.221 171 616.087 170.767 616.954 170.3C617.887 169.833 618.354 168.9 618.354 167.5C618.354 166.167 617.887 165.267 616.954 164.8C616.087 164.333 614.221 164.1 611.354 164.1H566.254V171ZM566.254 146H608.854C611.721 146 613.587 145.767 614.454 145.3C615.387 144.833 615.854 143.9 615.854 142.5C615.854 141.167 615.387 140.267 614.454 139.8C613.587 139.333 611.721 139.1 608.854 139.1H566.254V146ZM679.73 139V146H747.03V164H679.73V171H753.23V190H655.73V120H753.23V139H679.73ZM818.962 139V190H794.962V139H756.762V120H857.062V139H818.962ZM889.105 139V146H956.405V164H889.105V171H962.605V190H865.105V120H962.605V139H889.105Z" fill="#FD2C5B"/>
<mask id="path-4-inside-2_233_45" fill="white">
<path d="M7 220H76.1C83.1 220 89.0667 220.967 94 222.9C98.9333 224.767 102.967 227.3 106.1 230.5C109.233 233.7 111.5 237.433 112.9 241.7C114.367 245.967 115.1 250.467 115.1 255.2C115.1 259.933 114.367 264.433 112.9 268.7C111.5 272.9 109.233 276.6 106.1 279.8C102.967 282.933 98.9333 285.433 94 287.3C89.0667 289.1 83.1 290 76.1 290H7V220ZM31 238.8V271.3H70.6C74.6 271.3 77.9333 270.9 80.6 270.1C83.2667 269.233 85.3667 268.067 86.9 266.6C88.4333 265.133 89.5 263.433 90.1 261.5C90.7667 259.5 91.1 257.367 91.1 255.1C91.1 252.833 90.7667 250.733 90.1 248.8C89.5 246.8 88.4333 245.067 86.9 243.6C85.3667 242.133 83.2667 240.967 80.6 240.1C77.9333 239.233 74.6 238.8 70.6 238.8H31ZM235.766 290H208.466L201.666 279.5H149.066L142.366 290H115.066L160.166 220H190.666L235.766 290ZM160.566 261.5H190.166L175.366 238.5L160.566 261.5ZM239.813 290V220H274.413L304.313 265.9L333.413 220H368.513V290H344.513V242.8L314.613 290H294.513L263.813 242.9V290H239.813ZM493.188 290H465.888L459.088 279.5H406.488L399.788 290H372.488L417.588 220H448.088L493.188 290ZM417.988 261.5H447.588L432.788 238.5L417.988 261.5ZM542.254 220H619.954C627.287 220 632.821 221.667 636.554 225C640.354 228.333 642.254 232.833 642.254 238.5C642.254 240.033 641.987 241.6 641.454 243.2C640.987 244.8 640.321 246.333 639.454 247.8C638.587 249.2 637.554 250.467 636.354 251.6C635.154 252.667 633.887 253.5 632.554 254.1C634.821 254.7 636.721 255.6 638.254 256.8C639.854 257.933 641.121 259.233 642.054 260.7C643.054 262.1 643.754 263.567 644.154 265.1C644.554 266.633 644.754 268.033 644.754 269.3C644.754 272.7 644.287 275.7 643.354 278.3C642.421 280.9 640.854 283.067 638.654 284.8C636.454 286.533 633.554 287.833 629.954 288.7C626.421 289.567 622.054 290 616.854 290H542.254V220ZM566.254 271H611.354C614.221 271 616.087 270.767 616.954 270.3C617.887 269.833 618.354 268.9 618.354 267.5C618.354 266.167 617.887 265.267 616.954 264.8C616.087 264.333 614.221 264.1 611.354 264.1H566.254V271ZM566.254 246H608.854C611.721 246 613.587 245.767 614.454 245.3C615.387 244.833 615.854 243.9 615.854 242.5C615.854 241.167 615.387 240.267 614.454 239.8C613.587 239.333 611.721 239.1 608.854 239.1H566.254V246ZM679.73 239V246H747.03V264H679.73V271H753.23V290H655.73V220H753.23V239H679.73ZM818.962 239V290H794.962V239H756.762V220H857.062V239H818.962ZM889.105 239V246H956.405V264H889.105V271H962.605V290H865.105V220H962.605V239H889.105Z"/>
</mask>
<path d="M7 220V219H6V220H7ZM94 222.9L93.6351 223.831L93.6461 223.835L94 222.9ZM106.1 230.5L106.815 229.8L106.815 229.8L106.1 230.5ZM112.9 241.7L111.95 242.012L111.954 242.025L112.9 241.7ZM112.9 268.7L111.954 268.375L111.951 268.384L112.9 268.7ZM106.1 279.8L106.807 280.507L106.815 280.5L106.1 279.8ZM94 287.3L94.3428 288.239L94.3539 288.235L94 287.3ZM7 290H6V291H7V290ZM31 238.8V237.8H30V238.8H31ZM31 271.3H30V272.3H31V271.3ZM80.6 270.1L80.8874 271.058L80.8983 271.055L80.9091 271.051L80.6 270.1ZM90.1 261.5L89.1513 261.184L89.148 261.194L89.1449 261.204L90.1 261.5ZM90.1 248.8L89.1422 249.087L89.148 249.107L89.1546 249.126L90.1 248.8ZM86.9 243.6L86.2088 244.323L86.2088 244.323L86.9 243.6ZM80.6 240.1L80.2909 241.051L80.2909 241.051L80.6 240.1ZM7 221H76.1V219H7V221ZM76.1 221C83.0131 221 88.8488 221.955 93.6351 223.831L94.3649 221.969C89.2846 219.978 83.187 219 76.1 219V221ZM93.6461 223.835C98.4675 225.66 102.37 228.12 105.386 231.2L106.815 229.8C103.563 226.48 99.3992 223.874 94.3539 221.965L93.6461 223.835ZM105.386 231.2C108.411 234.29 110.598 237.89 111.95 242.012L113.85 241.388C112.403 236.976 110.055 233.11 106.815 229.8L105.386 231.2ZM111.954 242.025C113.383 246.182 114.1 250.572 114.1 255.2H116.1C116.1 250.362 115.35 245.751 113.846 241.375L111.954 242.025ZM114.1 255.2C114.1 259.828 113.383 264.218 111.954 268.375L113.846 269.025C115.35 264.649 116.1 260.038 116.1 255.2H114.1ZM111.951 268.384C110.6 272.438 108.414 276.007 105.385 279.1L106.815 280.5C110.053 277.193 112.4 273.362 113.849 269.016L111.951 268.384ZM105.393 279.093C102.377 282.109 98.4717 284.539 93.6461 286.365L94.3539 288.235C99.3949 286.328 103.556 283.758 106.807 280.507L105.393 279.093ZM93.6572 286.361C88.8635 288.11 83.0197 289 76.1 289V291C83.1803 291 89.2698 290.09 94.3428 288.239L93.6572 286.361ZM76.1 289H7V291H76.1V289ZM8 290V220H6V290H8ZM30 238.8V271.3H32V238.8H30ZM31 272.3H70.6V270.3H31V272.3ZM70.6 272.3C74.6587 272.3 78.0966 271.895 80.8874 271.058L80.3127 269.142C77.7701 269.905 74.5413 270.3 70.6 270.3V272.3ZM80.9091 271.051C83.6747 270.152 85.9202 268.921 87.5912 267.323L86.2088 265.877C84.8131 267.212 82.8586 268.314 80.2909 269.149L80.9091 271.051ZM87.5912 267.323C89.2411 265.744 90.4023 263.9 91.0551 261.796L89.1449 261.204C88.5977 262.967 87.6255 264.522 86.2088 265.877L87.5912 267.323ZM91.0487 261.816C91.7518 259.707 92.1 257.466 92.1 255.1H90.1C90.1 257.267 89.7815 259.293 89.1513 261.184L91.0487 261.816ZM92.1 255.1C92.1 252.734 91.7519 250.523 91.0454 248.474L89.1546 249.126C89.7814 250.944 90.1 252.932 90.1 255.1H92.1ZM91.0578 248.513C90.4073 246.344 89.2475 244.462 87.5912 242.877L86.2088 244.323C87.6192 245.672 88.5927 247.256 89.1422 249.087L91.0578 248.513ZM87.5912 242.877C85.9202 241.279 83.6747 240.048 80.9091 239.149L80.2909 241.051C82.8586 241.886 84.8131 242.988 86.2088 244.323L87.5912 242.877ZM80.9091 239.149C78.11 238.239 74.6641 237.8 70.6 237.8V239.8C74.5359 239.8 77.7567 240.227 80.2909 241.051L80.9091 239.149ZM70.6 237.8H31V239.8H70.6V237.8ZM235.766 290V291H237.6L236.607 289.458L235.766 290ZM208.466 290L207.627 290.544L207.923 291H208.466V290ZM201.666 279.5L202.506 278.956L202.21 278.5H201.666V279.5ZM149.066 279.5V278.5H148.518L148.223 278.962L149.066 279.5ZM142.366 290V291H142.915L143.209 290.538L142.366 290ZM115.066 290L114.226 289.458L113.233 291H115.066V290ZM160.166 220V219H159.621L159.326 219.458L160.166 220ZM190.666 220L191.507 219.458L191.212 219H190.666V220ZM160.566 261.5L159.725 260.959L158.734 262.5H160.566V261.5ZM190.166 261.5V262.5H191.999L191.007 260.959L190.166 261.5ZM175.366 238.5L176.207 237.959L175.366 236.652L174.525 237.959L175.366 238.5ZM235.766 289H208.466V291H235.766V289ZM209.306 289.456L202.506 278.956L200.827 280.044L207.627 290.544L209.306 289.456ZM201.666 278.5H149.066V280.5H201.666V278.5ZM148.223 278.962L141.523 289.462L143.209 290.538L149.909 280.038L148.223 278.962ZM142.366 289H115.066V291H142.366V289ZM115.907 290.542L161.007 220.542L159.326 219.458L114.226 289.458L115.907 290.542ZM160.166 221H190.666V219H160.166V221ZM189.826 220.542L234.926 290.542L236.607 289.458L191.507 219.458L189.826 220.542ZM160.566 262.5H190.166V260.5H160.566V262.5ZM191.007 260.959L176.207 237.959L174.525 239.041L189.325 262.041L191.007 260.959ZM174.525 237.959L159.725 260.959L161.407 262.041L176.207 239.041L174.525 237.959ZM239.813 290H238.813V291H239.813V290ZM239.813 220V219H238.813V220H239.813ZM274.413 220L275.25 219.454L274.955 219H274.413V220ZM304.313 265.9L303.475 266.446L304.324 267.75L305.157 266.435L304.313 265.9ZM333.413 220V219H332.862L332.568 219.465L333.413 220ZM368.513 220H369.513V219H368.513V220ZM368.513 290V291H369.513V290H368.513ZM344.513 290H343.513V291H344.513V290ZM344.513 242.8H345.513V239.353L343.668 242.265L344.513 242.8ZM314.613 290V291H315.163L315.457 290.535L314.613 290ZM294.513 290L293.675 290.546L293.971 291H294.513V290ZM263.813 242.9L264.65 242.354L262.813 239.534V242.9H263.813ZM263.813 290V291H264.813V290H263.813ZM240.813 290V220H238.813V290H240.813ZM239.813 221H274.413V219H239.813V221ZM273.575 220.546L303.475 266.446L305.15 265.354L275.25 219.454L273.575 220.546ZM305.157 266.435L334.257 220.535L332.568 219.465L303.468 265.365L305.157 266.435ZM333.413 221H368.513V219H333.413V221ZM367.513 220V290H369.513V220H367.513ZM368.513 289H344.513V291H368.513V289ZM345.513 290V242.8H343.513V290H345.513ZM343.668 242.265L313.768 289.465L315.457 290.535L345.357 243.335L343.668 242.265ZM314.613 289H294.513V291H314.613V289ZM295.35 289.454L264.65 242.354L262.975 243.446L293.675 290.546L295.35 289.454ZM262.813 242.9V290H264.813V242.9H262.813ZM263.813 289H239.813V291H263.813V289ZM493.188 290V291H495.022L494.029 289.458L493.188 290ZM465.888 290L465.049 290.544L465.345 291H465.888V290ZM459.088 279.5L459.928 278.956L459.632 278.5H459.088V279.5ZM406.488 279.5V278.5H405.94L405.645 278.962L406.488 279.5ZM399.788 290V291H400.336L400.631 290.538L399.788 290ZM372.488 290L371.648 289.458L370.654 291H372.488V290ZM417.588 220V219H417.043L416.748 219.458L417.588 220ZM448.088 220L448.929 219.458L448.634 219H448.088V220ZM417.988 261.5L417.147 260.959L416.156 262.5H417.988V261.5ZM447.588 261.5V262.5H449.421L448.429 260.959L447.588 261.5ZM432.788 238.5L433.629 237.959L432.788 236.652L431.947 237.959L432.788 238.5ZM493.188 289H465.888V291H493.188V289ZM466.728 289.456L459.928 278.956L458.249 280.044L465.049 290.544L466.728 289.456ZM459.088 278.5H406.488V280.5H459.088V278.5ZM405.645 278.962L398.945 289.462L400.631 290.538L407.331 280.038L405.645 278.962ZM399.788 289H372.488V291H399.788V289ZM373.329 290.542L418.429 220.542L416.748 219.458L371.648 289.458L373.329 290.542ZM417.588 221H448.088V219H417.588V221ZM447.248 220.542L492.348 290.542L494.029 289.458L448.929 219.458L447.248 220.542ZM417.988 262.5H447.588V260.5H417.988V262.5ZM448.429 260.959L433.629 237.959L431.947 239.041L446.747 262.041L448.429 260.959ZM431.947 237.959L417.147 260.959L418.829 262.041L433.629 239.041L431.947 237.959ZM542.254 220V219H541.254V220H542.254ZM636.554 225L635.888 225.746L635.894 225.752L636.554 225ZM641.454 243.2L640.505 242.884L640.499 242.902L640.494 242.92L641.454 243.2ZM639.454 247.8L640.304 248.326L640.31 248.318L640.315 248.309L639.454 247.8ZM636.354 251.6L637.018 252.347L637.03 252.337L637.041 252.327L636.354 251.6ZM632.554 254.1L632.144 253.188L629.572 254.345L632.298 255.067L632.554 254.1ZM638.254 256.8L637.638 257.588L637.656 257.602L637.676 257.616L638.254 256.8ZM642.054 260.7L641.21 261.237L641.225 261.259L641.24 261.281L642.054 260.7ZM644.154 265.1L645.122 264.848L645.122 264.848L644.154 265.1ZM643.354 278.3L644.295 278.638L644.295 278.638L643.354 278.3ZM638.654 284.8L638.035 284.015L638.654 284.8ZM629.954 288.7L629.72 287.728L629.716 287.729L629.954 288.7ZM542.254 290H541.254V291H542.254V290ZM566.254 271H565.254V272H566.254V271ZM616.954 270.3L616.507 269.406L616.493 269.412L616.48 269.42L616.954 270.3ZM616.954 264.8L616.48 265.68L616.493 265.688L616.507 265.694L616.954 264.8ZM566.254 264.1V263.1H565.254V264.1H566.254ZM566.254 246H565.254V247H566.254V246ZM614.454 245.3L614.007 244.406L613.993 244.412L613.98 244.42L614.454 245.3ZM614.454 239.8L613.98 240.68L613.993 240.688L614.007 240.694L614.454 239.8ZM566.254 239.1V238.1H565.254V239.1H566.254ZM542.254 221H619.954V219H542.254V221ZM619.954 221C627.154 221 632.407 222.638 635.888 225.746L637.22 224.254C633.234 220.695 627.421 219 619.954 219V221ZM635.894 225.752C639.45 228.871 641.254 233.082 641.254 238.5H643.254C643.254 232.584 641.257 227.796 637.213 224.248L635.894 225.752ZM641.254 238.5C641.254 239.916 641.008 241.376 640.505 242.884L642.403 243.516C642.967 241.824 643.254 240.151 643.254 238.5H641.254ZM640.494 242.92C640.051 244.438 639.418 245.895 638.593 247.291L640.315 248.309C641.223 246.772 641.923 245.162 642.414 243.48L640.494 242.92ZM638.604 247.274C637.783 248.6 636.804 249.799 635.667 250.873L637.041 252.327C638.303 251.134 639.392 249.8 640.304 248.326L638.604 247.274ZM635.69 250.853C634.558 251.858 633.376 252.634 632.144 253.188L632.964 255.012C634.399 254.366 635.75 253.475 637.018 252.347L635.69 250.853ZM632.298 255.067C634.46 255.639 636.23 256.486 637.638 257.588L638.87 256.012C637.211 254.714 635.181 253.761 632.81 253.133L632.298 255.067ZM637.676 257.616C639.184 258.684 640.355 259.893 641.21 261.237L642.898 260.163C641.886 258.574 640.524 257.183 638.832 255.984L637.676 257.616ZM641.24 261.281C642.175 262.59 642.82 263.947 643.186 265.352L645.122 264.848C644.688 263.186 643.932 261.61 642.868 260.119L641.24 261.281ZM643.186 265.352C643.57 266.823 643.754 268.137 643.754 269.3H645.754C645.754 267.93 645.538 266.444 645.122 264.848L643.186 265.352ZM643.754 269.3C643.754 272.61 643.299 275.492 642.413 277.962L644.295 278.638C645.275 275.908 645.754 272.79 645.754 269.3H643.754ZM642.413 277.962C641.544 280.383 640.09 282.396 638.035 284.015L639.273 285.585C641.618 283.738 643.297 281.417 644.295 278.638L642.413 277.962ZM638.035 284.015C635.979 285.635 633.223 286.885 629.72 287.728L630.188 289.672C633.885 288.782 636.929 287.432 639.273 285.585L638.035 284.015ZM629.716 287.729C626.286 288.57 622.005 289 616.854 289V291C622.103 291 626.555 290.563 630.192 289.671L629.716 287.729ZM616.854 289H542.254V291H616.854V289ZM543.254 290V220H541.254V290H543.254ZM566.254 272H611.354V270H566.254V272ZM611.354 272C612.81 272 614.038 271.941 615.028 271.817C615.993 271.697 616.827 271.504 617.428 271.18L616.48 269.42C616.214 269.563 615.682 269.72 614.78 269.833C613.903 269.942 612.765 270 611.354 270V272ZM617.401 271.194C618.79 270.5 619.354 269.128 619.354 267.5H617.354C617.354 268.672 616.985 269.167 616.507 269.406L617.401 271.194ZM619.354 267.5C619.354 265.913 618.772 264.591 617.401 263.906L616.507 265.694C617.002 265.942 617.354 266.42 617.354 267.5H619.354ZM617.428 263.92C616.827 263.596 615.993 263.403 615.028 263.283C614.038 263.159 612.81 263.1 611.354 263.1V265.1C612.765 265.1 613.903 265.158 614.78 265.267C615.682 265.38 616.214 265.537 616.48 265.68L617.428 263.92ZM611.354 263.1H566.254V265.1H611.354V263.1ZM565.254 264.1V271H567.254V264.1H565.254ZM566.254 247H608.854V245H566.254V247ZM608.854 247C610.31 247 611.538 246.941 612.528 246.817C613.493 246.697 614.327 246.504 614.928 246.18L613.98 244.42C613.714 244.563 613.182 244.72 612.28 244.833C611.403 244.942 610.265 245 608.854 245V247ZM614.901 246.194C616.29 245.5 616.854 244.128 616.854 242.5H614.854C614.854 243.672 614.485 244.167 614.007 244.406L614.901 246.194ZM616.854 242.5C616.854 240.913 616.272 239.591 614.901 238.906L614.007 240.694C614.502 240.942 614.854 241.42 614.854 242.5H616.854ZM614.928 238.92C614.327 238.596 613.493 238.403 612.528 238.283C611.538 238.159 610.31 238.1 608.854 238.1V240.1C610.265 240.1 611.403 240.158 612.28 240.267C613.182 240.38 613.714 240.537 613.98 240.68L614.928 238.92ZM608.854 238.1H566.254V240.1H608.854V238.1ZM565.254 239.1V246H567.254V239.1H565.254ZM679.73 239V238H678.73V239H679.73ZM679.73 246H678.73V247H679.73V246ZM747.03 246H748.03V245H747.03V246ZM747.03 264V265H748.03V264H747.03ZM679.73 264V263H678.73V264H679.73ZM679.73 271H678.73V272H679.73V271ZM753.23 271H754.23V270H753.23V271ZM753.23 290V291H754.23V290H753.23ZM655.73 290H654.73V291H655.73V290ZM655.73 220V219H654.73V220H655.73ZM753.23 220H754.23V219H753.23V220ZM753.23 239V240H754.23V239H753.23ZM678.73 239V246H680.73V239H678.73ZM679.73 247H747.03V245H679.73V247ZM746.03 246V264H748.03V246H746.03ZM747.03 263H679.73V265H747.03V263ZM678.73 264V271H680.73V264H678.73ZM679.73 272H753.23V270H679.73V272ZM752.23 271V290H754.23V271H752.23ZM753.23 289H655.73V291H753.23V289ZM656.73 290V220H654.73V290H656.73ZM655.73 221H753.23V219H655.73V221ZM752.23 220V239H754.23V220H752.23ZM753.23 238H679.73V240H753.23V238ZM818.962 239V238H817.962V239H818.962ZM818.962 290V291H819.962V290H818.962ZM794.962 290H793.962V291H794.962V290ZM794.962 239H795.962V238H794.962V239ZM756.762 239H755.762V240H756.762V239ZM756.762 220V219H755.762V220H756.762ZM857.062 220H858.062V219H857.062V220ZM857.062 239V240H858.062V239H857.062ZM817.962 239V290H819.962V239H817.962ZM818.962 289H794.962V291H818.962V289ZM795.962 290V239H793.962V290H795.962ZM794.962 238H756.762V240H794.962V238ZM757.762 239V220H755.762V239H757.762ZM756.762 221H857.062V219H756.762V221ZM856.062 220V239H858.062V220H856.062ZM857.062 238H818.962V240H857.062V238ZM889.105 239V238H888.105V239H889.105ZM889.105 246H888.105V247H889.105V246ZM956.405 246H957.405V245H956.405V246ZM956.405 264V265H957.405V264H956.405ZM889.105 264V263H888.105V264H889.105ZM889.105 271H888.105V272H889.105V271ZM962.605 271H963.605V270H962.605V271ZM962.605 290V291H963.605V290H962.605ZM865.105 290H864.105V291H865.105V290ZM865.105 220V219H864.105V220H865.105ZM962.605 220H963.605V219H962.605V220ZM962.605 239V240H963.605V239H962.605ZM888.105 239V246H890.105V239H888.105ZM889.105 247H956.405V245H889.105V247ZM955.405 246V264H957.405V246H955.405ZM956.405 263H889.105V265H956.405V263ZM888.105 264V271H890.105V264H888.105ZM889.105 272H962.605V270H889.105V272ZM961.605 271V290H963.605V271H961.605ZM962.605 289H865.105V291H962.605V289ZM866.105 290V220H864.105V290H866.105ZM865.105 221H962.605V219H865.105V221ZM961.605 220V239H963.605V220H961.605ZM962.605 238H889.105V240H962.605V238Z" fill="white" mask="url(#path-4-inside-2_233_45)"/>
</svg>
