<svg width="870" height="320" viewBox="0 0 870 320" fill="none" xmlns="http://www.w3.org/2000/svg">
<mask id="path-1-outside-1_160_2" maskUnits="userSpaceOnUse" x="7" y="15" width="859" height="117" fill="black">
<rect fill="white" x="7" y="15" width="859" height="117"/>
<path d="M8.8 131V16.6H53.44C68.5867 16.6 80.7467 22.0933 89.92 33.08C99.0933 43.96 103.68 57.9333 103.68 75C103.68 94.7333 97.6 109.72 85.44 119.96C76.5867 127.32 65.28 131 51.52 131H8.8ZM32 111H49.92C60.48 111 68.16 107.96 72.96 101.88C77.76 95.6933 80.16 86.7333 80.16 75C80.16 63.2667 77.6 53.9333 72.48 47C67.4667 39.96 60.16 36.44 50.56 36.44H32V111ZM101.574 131L141.414 16.6H165.414L205.734 131H181.574L173.894 106.68H132.614L125.094 131H101.574ZM148.294 55.96L138.054 88.92H168.294L158.054 55.96L153.414 38.36H153.094C151.174 46.04 149.574 51.9067 148.294 55.96ZM215.363 131V16.6H248.003L264.163 74.04C265.336 78.3067 266.509 83.0533 267.683 88.28C268.963 93.4 269.923 97.4533 270.563 100.44L271.363 104.92H271.683C273.709 93.9333 276.056 83.64 278.723 74.04L294.883 16.6H328.003V131H306.403V65.4L307.363 41.72H307.043C305.336 50.68 303.683 57.9333 302.083 63.48L282.403 131H260.163L240.963 63.48L236.003 41.72H235.683C236.323 51.32 236.643 59.2133 236.643 65.4V131H215.363ZM337.355 131L377.195 16.6H401.195L441.515 131H417.355L409.675 106.68H368.395L360.875 131H337.355ZM384.075 55.96L373.835 88.92H404.075L393.835 55.96L389.195 38.36H388.875C386.955 46.04 385.355 51.9067 384.075 55.96ZM478.019 131V16.6H529.219C541.485 16.6 550.712 19.3733 556.899 24.92C562.979 30.36 566.019 37.5067 566.019 46.36C566.019 57.56 560.045 65.1867 548.099 69.24V69.72C554.499 71.64 559.619 75.1067 563.459 80.12C567.405 85.1333 569.379 91.1067 569.379 98.04C569.379 108.173 566.019 116.12 559.299 121.88C552.365 127.96 542.765 131 530.499 131H478.019ZM501.219 79.8V111.8H527.939C533.485 111.8 537.859 110.413 541.059 107.64C544.259 104.76 545.859 100.973 545.859 96.28C545.859 91.0533 544.099 87 540.579 84.12C537.165 81.24 532.739 79.8 527.299 79.8H501.219ZM501.219 62.68H526.339C531.459 62.68 535.565 61.5067 538.659 59.16C541.752 56.7067 543.299 53.2933 543.299 48.92C543.299 44.6533 541.805 41.3467 538.819 39C535.939 36.6533 531.939 35.48 526.819 35.48H501.219V62.68ZM583.019 131V16.6H667.179V36.12H606.219V61.72H659.659V80.76H606.219V111.64H667.659V131H583.019ZM676.161 36.12V16.6H768.161V36.12H733.761V131H710.561V36.12H676.161ZM779.894 131V16.6H864.054V36.12H803.094V61.72H856.534V80.76H803.094V111.64H864.534V131H779.894Z"/>
</mask>
<path d="M8.8 131V16.6H53.44C68.5867 16.6 80.7467 22.0933 89.92 33.08C99.0933 43.96 103.68 57.9333 103.68 75C103.68 94.7333 97.6 109.72 85.44 119.96C76.5867 127.32 65.28 131 51.52 131H8.8ZM32 111H49.92C60.48 111 68.16 107.96 72.96 101.88C77.76 95.6933 80.16 86.7333 80.16 75C80.16 63.2667 77.6 53.9333 72.48 47C67.4667 39.96 60.16 36.44 50.56 36.44H32V111ZM101.574 131L141.414 16.6H165.414L205.734 131H181.574L173.894 106.68H132.614L125.094 131H101.574ZM148.294 55.96L138.054 88.92H168.294L158.054 55.96L153.414 38.36H153.094C151.174 46.04 149.574 51.9067 148.294 55.96ZM215.363 131V16.6H248.003L264.163 74.04C265.336 78.3067 266.509 83.0533 267.683 88.28C268.963 93.4 269.923 97.4533 270.563 100.44L271.363 104.92H271.683C273.709 93.9333 276.056 83.64 278.723 74.04L294.883 16.6H328.003V131H306.403V65.4L307.363 41.72H307.043C305.336 50.68 303.683 57.9333 302.083 63.48L282.403 131H260.163L240.963 63.48L236.003 41.72H235.683C236.323 51.32 236.643 59.2133 236.643 65.4V131H215.363ZM337.355 131L377.195 16.6H401.195L441.515 131H417.355L409.675 106.68H368.395L360.875 131H337.355ZM384.075 55.96L373.835 88.92H404.075L393.835 55.96L389.195 38.36H388.875C386.955 46.04 385.355 51.9067 384.075 55.96ZM478.019 131V16.6H529.219C541.485 16.6 550.712 19.3733 556.899 24.92C562.979 30.36 566.019 37.5067 566.019 46.36C566.019 57.56 560.045 65.1867 548.099 69.24V69.72C554.499 71.64 559.619 75.1067 563.459 80.12C567.405 85.1333 569.379 91.1067 569.379 98.04C569.379 108.173 566.019 116.12 559.299 121.88C552.365 127.96 542.765 131 530.499 131H478.019ZM501.219 79.8V111.8H527.939C533.485 111.8 537.859 110.413 541.059 107.64C544.259 104.76 545.859 100.973 545.859 96.28C545.859 91.0533 544.099 87 540.579 84.12C537.165 81.24 532.739 79.8 527.299 79.8H501.219ZM501.219 62.68H526.339C531.459 62.68 535.565 61.5067 538.659 59.16C541.752 56.7067 543.299 53.2933 543.299 48.92C543.299 44.6533 541.805 41.3467 538.819 39C535.939 36.6533 531.939 35.48 526.819 35.48H501.219V62.68ZM583.019 131V16.6H667.179V36.12H606.219V61.72H659.659V80.76H606.219V111.64H667.659V131H583.019ZM676.161 36.12V16.6H768.161V36.12H733.761V131H710.561V36.12H676.161ZM779.894 131V16.6H864.054V36.12H803.094V61.72H856.534V80.76H803.094V111.64H864.534V131H779.894Z" fill="white"/>
<path d="M8.8 131H7.8V132H8.8V131ZM8.8 16.6V15.6H7.8V16.6H8.8ZM89.92 33.08L89.1524 33.7209L89.1555 33.7246L89.92 33.08ZM85.44 119.96L86.0793 120.729L86.0841 120.725L85.44 119.96ZM32 111H31V112H32V111ZM72.96 101.88L73.7449 102.5L73.7501 102.493L72.96 101.88ZM72.48 47L71.6654 47.5801L71.6704 47.5871L71.6756 47.594L72.48 47ZM32 36.44V35.44H31V36.44H32ZM9.8 131V16.6H7.8V131H9.8ZM8.8 17.6H53.44V15.6H8.8V17.6ZM53.44 17.6C68.31 17.6 80.1814 22.9765 89.1524 33.7209L90.6876 32.4391C81.312 21.2101 68.8634 15.6 53.44 15.6V17.6ZM89.1555 33.7246C98.1478 44.39 102.68 58.1202 102.68 75H104.68C104.68 57.7465 100.039 43.53 90.6845 32.4354L89.1555 33.7246ZM102.68 75C102.68 94.5159 96.677 109.19 84.7959 119.195L86.0841 120.725C98.523 110.25 104.68 94.9508 104.68 75H102.68ZM84.8007 119.191C76.1604 126.374 65.094 130 51.52 130V132C65.466 132 77.0129 128.266 86.0793 120.729L84.8007 119.191ZM51.52 130H8.8V132H51.52V130ZM32 112H49.92V110H32V112ZM49.92 112C60.6676 112 68.6923 108.9 73.7449 102.5L72.1751 101.26C67.6277 107.02 60.2925 110 49.92 110V112ZM73.7501 102.493C78.7392 96.0626 81.16 86.8497 81.16 75H79.16C79.16 86.617 76.7808 95.324 72.1699 101.267L73.7501 102.493ZM81.16 75C81.16 63.1289 78.5702 53.5638 73.2844 46.406L71.6756 47.594C76.6298 54.3029 79.16 63.4045 79.16 75H81.16ZM73.2946 46.4199C68.0707 39.0843 60.4418 35.44 50.56 35.44V37.44C59.8782 37.44 66.8626 40.8357 71.6654 47.5801L73.2946 46.4199ZM50.56 35.44H32V37.44H50.56V35.44ZM31 36.44V111H33V36.44H31ZM101.574 131L100.629 130.671L100.167 132H101.574V131ZM141.414 16.6V15.6H140.703L140.469 16.2711L141.414 16.6ZM165.414 16.6L166.357 16.2676L166.122 15.6H165.414V16.6ZM205.734 131V132H207.146L206.677 130.668L205.734 131ZM181.574 131L180.62 131.301L180.841 132H181.574V131ZM173.894 106.68L174.847 106.379L174.627 105.68H173.894V106.68ZM132.614 106.68V105.68H131.876L131.658 106.385L132.614 106.68ZM125.094 131V132H125.831L126.049 131.295L125.094 131ZM148.294 55.96L147.34 55.6589L147.339 55.6633L148.294 55.96ZM138.054 88.92L137.099 88.6233L136.696 89.92H138.054V88.92ZM168.294 88.92V89.92H169.652L169.249 88.6233L168.294 88.92ZM158.054 55.96L157.087 56.2149L157.092 56.2359L157.099 56.2567L158.054 55.96ZM153.414 38.36L154.381 38.1051L154.184 37.36H153.414V38.36ZM153.094 38.36V37.36H152.313L152.124 38.1175L153.094 38.36ZM102.518 131.329L142.358 16.9289L140.469 16.2711L100.629 130.671L102.518 131.329ZM141.414 17.6H165.414V15.6H141.414V17.6ZM164.471 16.9324L204.791 131.332L206.677 130.668L166.357 16.2676L164.471 16.9324ZM205.734 130H181.574V132H205.734V130ZM182.527 130.699L174.847 106.379L172.94 106.981L180.62 131.301L182.527 130.699ZM173.894 105.68H132.614V107.68H173.894V105.68ZM131.658 106.385L124.138 130.705L126.049 131.295L133.569 106.975L131.658 106.385ZM125.094 130H101.574V132H125.094V130ZM147.339 55.6633L137.099 88.6233L139.009 89.2167L149.249 56.2567L147.339 55.6633ZM138.054 89.92H168.294V87.92H138.054V89.92ZM169.249 88.6233L159.009 55.6633L157.099 56.2567L167.339 89.2167L169.249 88.6233ZM159.021 55.7051L154.381 38.1051L152.447 38.6149L157.087 56.2149L159.021 55.7051ZM153.414 37.36H153.094V39.36H153.414V37.36ZM152.124 38.1175C150.205 45.7914 148.611 51.6348 147.34 55.6589L149.247 56.2611C150.537 52.1785 152.142 46.2886 154.064 38.6025L152.124 38.1175ZM215.363 131H214.363V132H215.363V131ZM215.363 16.6V15.6H214.363V16.6H215.363ZM248.003 16.6L248.965 16.3292L248.76 15.6H248.003V16.6ZM264.163 74.04L265.127 73.7748L265.125 73.7692L264.163 74.04ZM267.683 88.28L266.707 88.499L266.709 88.5108L266.712 88.5225L267.683 88.28ZM270.563 100.44L271.547 100.264L271.544 100.247L271.54 100.23L270.563 100.44ZM271.363 104.92L270.378 105.096L270.525 105.92H271.363V104.92ZM271.683 104.92V105.92H272.515L272.666 105.101L271.683 104.92ZM278.723 74.04L277.76 73.7692L277.759 73.7724L278.723 74.04ZM294.883 16.6V15.6H294.125L293.92 16.3292L294.883 16.6ZM328.003 16.6H329.003V15.6H328.003V16.6ZM328.003 131V132H329.003V131H328.003ZM306.403 131H305.403V132H306.403V131ZM306.403 65.4L305.403 65.3595L305.403 65.3797V65.4H306.403ZM307.363 41.72L308.362 41.7605L308.404 40.72H307.363V41.72ZM307.043 41.72V40.72H306.215L306.06 41.5329L307.043 41.72ZM302.083 63.48L303.043 63.7598L303.043 63.7572L302.083 63.48ZM282.403 131V132H283.153L283.363 131.28L282.403 131ZM260.163 131L259.201 131.274L259.407 132H260.163V131ZM240.963 63.48L239.988 63.7022L239.993 63.728L240.001 63.7535L240.963 63.48ZM236.003 41.72L236.977 41.4978L236.8 40.72H236.003V41.72ZM235.683 41.72V40.72H234.614L234.685 41.7865L235.683 41.72ZM236.643 131V132H237.643V131H236.643ZM216.363 131V16.6H214.363V131H216.363ZM215.363 17.6H248.003V15.6H215.363V17.6ZM247.04 16.8708L263.2 74.3108L265.125 73.7692L248.965 16.3292L247.04 16.8708ZM263.198 74.3052C264.367 78.5538 265.536 83.2847 266.707 88.499L268.658 88.061C267.482 82.8219 266.305 78.0596 265.127 73.7748L263.198 74.3052ZM266.712 88.5225C267.991 93.6382 268.948 97.679 269.585 100.65L271.54 100.23C270.897 97.2276 269.934 93.1618 268.653 88.0375L266.712 88.5225ZM269.578 100.616L270.378 105.096L272.347 104.744L271.547 100.264L269.578 100.616ZM271.363 105.92H271.683V103.92H271.363V105.92ZM272.666 105.101C274.688 94.1403 277.028 83.876 279.686 74.3076L277.759 73.7724C275.084 83.404 272.73 93.7263 270.699 104.739L272.666 105.101ZM279.685 74.3108L295.845 16.8708L293.92 16.3292L277.76 73.7692L279.685 74.3108ZM294.883 17.6H328.003V15.6H294.883V17.6ZM327.003 16.6V131H329.003V16.6H327.003ZM328.003 130H306.403V132H328.003V130ZM307.403 131V65.4H305.403V131H307.403ZM307.402 65.4405L308.362 41.7605L306.363 41.6795L305.403 65.3595L307.402 65.4405ZM307.363 40.72H307.043V42.72H307.363V40.72ZM306.06 41.5329C304.356 50.4777 302.71 57.6977 301.122 63.2028L303.043 63.7572C304.655 58.169 306.315 50.8822 308.025 41.9071L306.06 41.5329ZM301.122 63.2002L281.442 130.72L283.363 131.28L303.043 63.7598L301.122 63.2002ZM282.403 130H260.163V132H282.403V130ZM261.124 130.726L241.924 63.2065L240.001 63.7535L259.201 131.274L261.124 130.726ZM241.937 63.2578L236.977 41.4978L235.028 41.9422L239.988 63.7022L241.937 63.2578ZM236.003 40.72H235.683V42.72H236.003V40.72ZM234.685 41.7865C235.324 51.375 235.643 59.2441 235.643 65.4H237.643C237.643 59.1825 237.321 51.2649 236.68 41.6535L234.685 41.7865ZM235.643 65.4V131H237.643V65.4H235.643ZM236.643 130H215.363V132H236.643V130ZM337.355 131L336.411 130.671L335.948 132H337.355V131ZM377.195 16.6V15.6H376.484L376.251 16.2711L377.195 16.6ZM401.195 16.6L402.138 16.2676L401.903 15.6H401.195V16.6ZM441.515 131V132H442.928L442.458 130.668L441.515 131ZM417.355 131L416.401 131.301L416.622 132H417.355V131ZM409.675 106.68L410.629 106.379L410.408 105.68H409.675V106.68ZM368.395 106.68V105.68H367.657L367.44 106.385L368.395 106.68ZM360.875 131V132H361.613L361.83 131.295L360.875 131ZM384.075 55.96L383.121 55.6589L383.12 55.6633L384.075 55.96ZM373.835 88.92L372.88 88.6233L372.477 89.92H373.835V88.92ZM404.075 88.92V89.92H405.433L405.03 88.6233L404.075 88.92ZM393.835 55.96L392.868 56.2149L392.874 56.2359L392.88 56.2567L393.835 55.96ZM389.195 38.36L390.162 38.1051L389.966 37.36H389.195V38.36ZM388.875 38.36V37.36H388.094L387.905 38.1175L388.875 38.36ZM338.299 131.329L378.139 16.9289L376.251 16.2711L336.411 130.671L338.299 131.329ZM377.195 17.6H401.195V15.6H377.195V17.6ZM400.252 16.9324L440.572 131.332L442.458 130.668L402.138 16.2676L400.252 16.9324ZM441.515 130H417.355V132H441.515V130ZM418.309 130.699L410.629 106.379L408.721 106.981L416.401 131.301L418.309 130.699ZM409.675 105.68H368.395V107.68H409.675V105.68ZM367.44 106.385L359.92 130.705L361.83 131.295L369.35 106.975L367.44 106.385ZM360.875 130H337.355V132H360.875V130ZM383.12 55.6633L372.88 88.6233L374.79 89.2167L385.03 56.2567L383.12 55.6633ZM373.835 89.92H404.075V87.92H373.835V89.92ZM405.03 88.6233L394.79 55.6633L392.88 56.2567L403.12 89.2167L405.03 88.6233ZM394.802 55.7051L390.162 38.1051L388.228 38.6149L392.868 56.2149L394.802 55.7051ZM389.195 37.36H388.875V39.36H389.195V37.36ZM387.905 38.1175C385.986 45.7914 384.392 51.6348 383.121 55.6589L385.029 56.2611C386.318 52.1785 387.924 46.2886 389.845 38.6025L387.905 38.1175ZM478.019 131H477.019V132H478.019V131ZM478.019 16.6V15.6H477.019V16.6H478.019ZM556.899 24.92L556.231 25.6646L556.232 25.6652L556.899 24.92ZM548.099 69.24L547.777 68.293L547.099 68.5233V69.24H548.099ZM548.099 69.72H547.099V70.464L547.811 70.6778L548.099 69.72ZM563.459 80.12L562.665 80.7281L562.673 80.7386L563.459 80.12ZM559.299 121.88L558.648 121.121L558.639 121.128L559.299 121.88ZM501.219 79.8V78.8H500.219V79.8H501.219ZM501.219 111.8H500.219V112.8H501.219V111.8ZM541.059 107.64L541.714 108.396L541.721 108.39L541.728 108.383L541.059 107.64ZM540.579 84.12L539.934 84.8843L539.94 84.8892L539.946 84.894L540.579 84.12ZM501.219 62.68H500.219V63.68H501.219V62.68ZM538.659 59.16L539.263 59.9567L539.272 59.9502L539.28 59.9435L538.659 59.16ZM538.819 39L538.187 39.7752L538.194 39.7808L538.201 39.7863L538.819 39ZM501.219 35.48V34.48H500.219V35.48H501.219ZM479.019 131V16.6H477.019V131H479.019ZM478.019 17.6H529.219V15.6H478.019V17.6ZM529.219 17.6C541.354 17.6 550.299 20.3456 556.231 25.6646L557.566 24.1754C551.126 18.4011 541.617 15.6 529.219 15.6V17.6ZM556.232 25.6652C562.08 30.8981 565.019 37.7639 565.019 46.36H567.019C567.019 37.2494 563.877 29.8219 557.566 24.1748L556.232 25.6652ZM565.019 46.36C565.019 51.773 563.579 56.2528 560.751 59.8634C557.916 63.4836 553.622 66.3102 547.777 68.293L548.42 70.187C554.523 68.1165 559.188 65.103 562.326 61.0966C565.471 57.0806 567.019 52.147 567.019 46.36H565.019ZM547.099 69.24V69.72H549.099V69.24H547.099ZM547.811 70.6778C554.022 72.5411 558.96 75.8917 562.665 80.7281L564.253 79.5119C560.277 74.3216 554.975 70.7389 548.386 68.7622L547.811 70.6778ZM562.673 80.7386C566.469 85.56 568.379 91.3103 568.379 98.04H570.379C570.379 90.903 568.342 84.7067 564.244 79.5014L562.673 80.7386ZM568.379 98.04C568.379 107.929 565.113 115.579 558.648 121.121L559.95 122.639C566.925 116.661 570.379 108.418 570.379 98.04H568.379ZM558.639 121.128C551.942 127.002 542.604 130 530.499 130V132C542.927 132 552.789 128.918 559.958 122.632L558.639 121.128ZM530.499 130H478.019V132H530.499V130ZM500.219 79.8V111.8H502.219V79.8H500.219ZM501.219 112.8H527.939V110.8H501.219V112.8ZM527.939 112.8C533.65 112.8 538.282 111.37 541.714 108.396L540.404 106.884C537.436 109.457 533.321 110.8 527.939 110.8V112.8ZM541.728 108.383C545.159 105.295 546.859 101.228 546.859 96.28H544.859C544.859 100.718 543.359 104.225 540.39 106.897L541.728 108.383ZM546.859 96.28C546.859 90.8036 545 86.4456 541.212 83.346L539.946 84.894C543.197 87.5544 544.859 91.3031 544.859 96.28H546.859ZM541.224 83.3557C537.593 80.2922 532.921 78.8 527.299 78.8V80.8C532.556 80.8 536.738 82.1878 539.934 84.8843L541.224 83.3557ZM527.299 78.8H501.219V80.8H527.299V78.8ZM501.219 63.68H526.339V61.68H501.219V63.68ZM526.339 63.68C531.608 63.68 535.948 62.4718 539.263 59.9567L538.054 58.3633C535.183 60.5415 531.31 61.68 526.339 61.68V63.68ZM539.28 59.9435C542.641 57.2783 544.299 53.5611 544.299 48.92H542.299C542.299 53.0256 540.864 56.135 538.037 58.3765L539.28 59.9435ZM544.299 48.92C544.299 44.3895 542.696 40.775 539.437 38.2137L538.201 39.7863C540.914 41.9183 542.299 44.9171 542.299 48.92H544.299ZM539.45 38.2248C536.335 35.6862 532.083 34.48 526.819 34.48V36.48C531.795 36.48 535.543 37.6204 538.187 39.7752L539.45 38.2248ZM526.819 34.48H501.219V36.48H526.819V34.48ZM500.219 35.48V62.68H502.219V35.48H500.219ZM583.019 131H582.019V132H583.019V131ZM583.019 16.6V15.6H582.019V16.6H583.019ZM667.179 16.6H668.179V15.6H667.179V16.6ZM667.179 36.12V37.12H668.179V36.12H667.179ZM606.219 36.12V35.12H605.219V36.12H606.219ZM606.219 61.72H605.219V62.72H606.219V61.72ZM659.659 61.72H660.659V60.72H659.659V61.72ZM659.659 80.76V81.76H660.659V80.76H659.659ZM606.219 80.76V79.76H605.219V80.76H606.219ZM606.219 111.64H605.219V112.64H606.219V111.64ZM667.659 111.64H668.659V110.64H667.659V111.64ZM667.659 131V132H668.659V131H667.659ZM584.019 131V16.6H582.019V131H584.019ZM583.019 17.6H667.179V15.6H583.019V17.6ZM666.179 16.6V36.12H668.179V16.6H666.179ZM667.179 35.12H606.219V37.12H667.179V35.12ZM605.219 36.12V61.72H607.219V36.12H605.219ZM606.219 62.72H659.659V60.72H606.219V62.72ZM658.659 61.72V80.76H660.659V61.72H658.659ZM659.659 79.76H606.219V81.76H659.659V79.76ZM605.219 80.76V111.64H607.219V80.76H605.219ZM606.219 112.64H667.659V110.64H606.219V112.64ZM666.659 111.64V131H668.659V111.64H666.659ZM667.659 130H583.019V132H667.659V130ZM676.161 36.12H675.161V37.12H676.161V36.12ZM676.161 16.6V15.6H675.161V16.6H676.161ZM768.161 16.6H769.161V15.6H768.161V16.6ZM768.161 36.12V37.12H769.161V36.12H768.161ZM733.761 36.12V35.12H732.761V36.12H733.761ZM733.761 131V132H734.761V131H733.761ZM710.561 131H709.561V132H710.561V131ZM710.561 36.12H711.561V35.12H710.561V36.12ZM677.161 36.12V16.6H675.161V36.12H677.161ZM676.161 17.6H768.161V15.6H676.161V17.6ZM767.161 16.6V36.12H769.161V16.6H767.161ZM768.161 35.12H733.761V37.12H768.161V35.12ZM732.761 36.12V131H734.761V36.12H732.761ZM733.761 130H710.561V132H733.761V130ZM711.561 131V36.12H709.561V131H711.561ZM710.561 35.12H676.161V37.12H710.561V35.12ZM779.894 131H778.894V132H779.894V131ZM779.894 16.6V15.6H778.894V16.6H779.894ZM864.054 16.6H865.054V15.6H864.054V16.6ZM864.054 36.12V37.12H865.054V36.12H864.054ZM803.094 36.12V35.12H802.094V36.12H803.094ZM803.094 61.72H802.094V62.72H803.094V61.72ZM856.534 61.72H857.534V60.72H856.534V61.72ZM856.534 80.76V81.76H857.534V80.76H856.534ZM803.094 80.76V79.76H802.094V80.76H803.094ZM803.094 111.64H802.094V112.64H803.094V111.64ZM864.534 111.64H865.534V110.64H864.534V111.64ZM864.534 131V132H865.534V131H864.534ZM780.894 131V16.6H778.894V131H780.894ZM779.894 17.6H864.054V15.6H779.894V17.6ZM863.054 16.6V36.12H865.054V16.6H863.054ZM864.054 35.12H803.094V37.12H864.054V35.12ZM802.094 36.12V61.72H804.094V36.12H802.094ZM803.094 62.72H856.534V60.72H803.094V62.72ZM855.534 61.72V80.76H857.534V61.72H855.534ZM856.534 79.76H803.094V81.76H856.534V79.76ZM802.094 80.76V111.64H804.094V80.76H802.094ZM803.094 112.64H864.534V110.64H803.094V112.64ZM863.534 111.64V131H865.534V111.64H863.534ZM864.534 130H779.894V132H864.534V130Z" fill="white" mask="url(#path-1-outside-1_160_2)"/>
<mask id="path-3-outside-2_160_2" maskUnits="userSpaceOnUse" x="7" y="175" width="859" height="117" fill="black">
<rect fill="white" x="7" y="175" width="859" height="117"/>
<path d="M8.8 291V176.6H53.44C68.5867 176.6 80.7467 182.093 89.92 193.08C99.0933 203.96 103.68 217.933 103.68 235C103.68 254.733 97.6 269.72 85.44 279.96C76.5867 287.32 65.28 291 51.52 291H8.8ZM32 271H49.92C60.48 271 68.16 267.96 72.96 261.88C77.76 255.693 80.16 246.733 80.16 235C80.16 223.267 77.6 213.933 72.48 207C67.4667 199.96 60.16 196.44 50.56 196.44H32V271ZM101.574 291L141.414 176.6H165.414L205.734 291H181.574L173.894 266.68H132.614L125.094 291H101.574ZM148.294 215.96L138.054 248.92H168.294L158.054 215.96L153.414 198.36H153.094C151.174 206.04 149.574 211.907 148.294 215.96ZM215.363 291V176.6H248.003L264.163 234.04C265.336 238.307 266.509 243.053 267.683 248.28C268.963 253.4 269.923 257.453 270.563 260.44L271.363 264.92H271.683C273.709 253.933 276.056 243.64 278.723 234.04L294.883 176.6H328.003V291H306.403V225.4L307.363 201.72H307.043C305.336 210.68 303.683 217.933 302.083 223.48L282.403 291H260.163L240.963 223.48L236.003 201.72H235.683C236.323 211.32 236.643 219.213 236.643 225.4V291H215.363ZM337.355 291L377.195 176.6H401.195L441.515 291H417.355L409.675 266.68H368.395L360.875 291H337.355ZM384.075 215.96L373.835 248.92H404.075L393.835 215.96L389.195 198.36H388.875C386.955 206.04 385.355 211.907 384.075 215.96ZM478.019 291V176.6H529.219C541.485 176.6 550.712 179.373 556.899 184.92C562.979 190.36 566.019 197.507 566.019 206.36C566.019 217.56 560.045 225.187 548.099 229.24V229.72C554.499 231.64 559.619 235.107 563.459 240.12C567.405 245.133 569.379 251.107 569.379 258.04C569.379 268.173 566.019 276.12 559.299 281.88C552.365 287.96 542.765 291 530.499 291H478.019ZM501.219 239.8V271.8H527.939C533.485 271.8 537.859 270.413 541.059 267.64C544.259 264.76 545.859 260.973 545.859 256.28C545.859 251.053 544.099 247 540.579 244.12C537.165 241.24 532.739 239.8 527.299 239.8H501.219ZM501.219 222.68H526.339C531.459 222.68 535.565 221.507 538.659 219.16C541.752 216.707 543.299 213.293 543.299 208.92C543.299 204.653 541.805 201.347 538.819 199C535.939 196.653 531.939 195.48 526.819 195.48H501.219V222.68ZM583.019 291V176.6H667.179V196.12H606.219V221.72H659.659V240.76H606.219V271.64H667.659V291H583.019ZM676.161 196.12V176.6H768.161V196.12H733.761V291H710.561V196.12H676.161ZM779.894 291V176.6H864.054V196.12H803.094V221.72H856.534V240.76H803.094V271.64H864.534V291H779.894Z"/>
</mask>
<path d="M8.8 291H7.8V292H8.8V291ZM8.8 176.6V175.6H7.8V176.6H8.8ZM89.92 193.08L89.1524 193.721L89.1555 193.725L89.92 193.08ZM85.44 279.96L86.0793 280.729L86.0841 280.725L85.44 279.96ZM32 271H31V272H32V271ZM72.96 261.88L73.7449 262.5L73.7501 262.493L72.96 261.88ZM72.48 207L71.6654 207.58L71.6704 207.587L71.6756 207.594L72.48 207ZM32 196.44V195.44H31V196.44H32ZM9.8 291V176.6H7.8V291H9.8ZM8.8 177.6H53.44V175.6H8.8V177.6ZM53.44 177.6C68.31 177.6 80.1814 182.977 89.1524 193.721L90.6876 192.439C81.312 181.21 68.8634 175.6 53.44 175.6V177.6ZM89.1555 193.725C98.1478 204.39 102.68 218.12 102.68 235H104.68C104.68 217.746 100.039 203.53 90.6845 192.435L89.1555 193.725ZM102.68 235C102.68 254.516 96.677 269.19 84.7959 279.195L86.0841 280.725C98.523 270.25 104.68 254.951 104.68 235H102.68ZM84.8007 279.191C76.1604 286.374 65.094 290 51.52 290V292C65.466 292 77.0129 288.266 86.0793 280.729L84.8007 279.191ZM51.52 290H8.8V292H51.52V290ZM32 272H49.92V270H32V272ZM49.92 272C60.6676 272 68.6923 268.9 73.7449 262.5L72.1751 261.26C67.6277 267.02 60.2925 270 49.92 270V272ZM73.7501 262.493C78.7392 256.063 81.16 246.85 81.16 235H79.16C79.16 246.617 76.7808 255.324 72.1699 261.267L73.7501 262.493ZM81.16 235C81.16 223.129 78.5702 213.564 73.2844 206.406L71.6756 207.594C76.6298 214.303 79.16 223.404 79.16 235H81.16ZM73.2946 206.42C68.0707 199.084 60.4418 195.44 50.56 195.44V197.44C59.8782 197.44 66.8626 200.836 71.6654 207.58L73.2946 206.42ZM50.56 195.44H32V197.44H50.56V195.44ZM31 196.44V271H33V196.44H31ZM101.574 291L100.629 290.671L100.167 292H101.574V291ZM141.414 176.6V175.6H140.703L140.469 176.271L141.414 176.6ZM165.414 176.6L166.357 176.268L166.122 175.6H165.414V176.6ZM205.734 291V292H207.146L206.677 290.668L205.734 291ZM181.574 291L180.62 291.301L180.841 292H181.574V291ZM173.894 266.68L174.847 266.379L174.627 265.68H173.894V266.68ZM132.614 266.68V265.68H131.876L131.658 266.385L132.614 266.68ZM125.094 291V292H125.831L126.049 291.295L125.094 291ZM148.294 215.96L147.34 215.659L147.339 215.663L148.294 215.96ZM138.054 248.92L137.099 248.623L136.696 249.92H138.054V248.92ZM168.294 248.92V249.92H169.652L169.249 248.623L168.294 248.92ZM158.054 215.96L157.087 216.215L157.092 216.236L157.099 216.257L158.054 215.96ZM153.414 198.36L154.381 198.105L154.184 197.36H153.414V198.36ZM153.094 198.36V197.36H152.313L152.124 198.117L153.094 198.36ZM102.518 291.329L142.358 176.929L140.469 176.271L100.629 290.671L102.518 291.329ZM141.414 177.6H165.414V175.6H141.414V177.6ZM164.471 176.932L204.791 291.332L206.677 290.668L166.357 176.268L164.471 176.932ZM205.734 290H181.574V292H205.734V290ZM182.527 290.699L174.847 266.379L172.94 266.981L180.62 291.301L182.527 290.699ZM173.894 265.68H132.614V267.68H173.894V265.68ZM131.658 266.385L124.138 290.705L126.049 291.295L133.569 266.975L131.658 266.385ZM125.094 290H101.574V292H125.094V290ZM147.339 215.663L137.099 248.623L139.009 249.217L149.249 216.257L147.339 215.663ZM138.054 249.92H168.294V247.92H138.054V249.92ZM169.249 248.623L159.009 215.663L157.099 216.257L167.339 249.217L169.249 248.623ZM159.021 215.705L154.381 198.105L152.447 198.615L157.087 216.215L159.021 215.705ZM153.414 197.36H153.094V199.36H153.414V197.36ZM152.124 198.117C150.205 205.791 148.611 211.635 147.34 215.659L149.247 216.261C150.537 212.179 152.142 206.289 154.064 198.603L152.124 198.117ZM215.363 291H214.363V292H215.363V291ZM215.363 176.6V175.6H214.363V176.6H215.363ZM248.003 176.6L248.965 176.329L248.76 175.6H248.003V176.6ZM264.163 234.04L265.127 233.775L265.125 233.769L264.163 234.04ZM267.683 248.28L266.707 248.499L266.709 248.511L266.712 248.523L267.683 248.28ZM270.563 260.44L271.547 260.264L271.544 260.247L271.54 260.23L270.563 260.44ZM271.363 264.92L270.378 265.096L270.525 265.92H271.363V264.92ZM271.683 264.92V265.92H272.515L272.666 265.101L271.683 264.92ZM278.723 234.04L277.76 233.769L277.759 233.772L278.723 234.04ZM294.883 176.6V175.6H294.125L293.92 176.329L294.883 176.6ZM328.003 176.6H329.003V175.6H328.003V176.6ZM328.003 291V292H329.003V291H328.003ZM306.403 291H305.403V292H306.403V291ZM306.403 225.4L305.403 225.359L305.403 225.38V225.4H306.403ZM307.363 201.72L308.362 201.761L308.404 200.72H307.363V201.72ZM307.043 201.72V200.72H306.215L306.06 201.533L307.043 201.72ZM302.083 223.48L303.043 223.76L303.043 223.757L302.083 223.48ZM282.403 291V292H283.153L283.363 291.28L282.403 291ZM260.163 291L259.201 291.274L259.407 292H260.163V291ZM240.963 223.48L239.988 223.702L239.993 223.728L240.001 223.754L240.963 223.48ZM236.003 201.72L236.977 201.498L236.8 200.72H236.003V201.72ZM235.683 201.72V200.72H234.614L234.685 201.787L235.683 201.72ZM236.643 291V292H237.643V291H236.643ZM216.363 291V176.6H214.363V291H216.363ZM215.363 177.6H248.003V175.6H215.363V177.6ZM247.04 176.871L263.2 234.311L265.125 233.769L248.965 176.329L247.04 176.871ZM263.198 234.305C264.367 238.554 265.536 243.285 266.707 248.499L268.658 248.061C267.482 242.822 266.305 238.06 265.127 233.775L263.198 234.305ZM266.712 248.523C267.991 253.638 268.948 257.679 269.585 260.65L271.54 260.23C270.897 257.228 269.934 253.162 268.653 248.037L266.712 248.523ZM269.578 260.616L270.378 265.096L272.347 264.744L271.547 260.264L269.578 260.616ZM271.363 265.92H271.683V263.92H271.363V265.92ZM272.666 265.101C274.688 254.14 277.028 243.876 279.686 234.308L277.759 233.772C275.084 243.404 272.73 253.726 270.699 264.739L272.666 265.101ZM279.685 234.311L295.845 176.871L293.92 176.329L277.76 233.769L279.685 234.311ZM294.883 177.6H328.003V175.6H294.883V177.6ZM327.003 176.6V291H329.003V176.6H327.003ZM328.003 290H306.403V292H328.003V290ZM307.403 291V225.4H305.403V291H307.403ZM307.402 225.441L308.362 201.761L306.363 201.679L305.403 225.359L307.402 225.441ZM307.363 200.72H307.043V202.72H307.363V200.72ZM306.06 201.533C304.356 210.478 302.71 217.698 301.122 223.203L303.043 223.757C304.655 218.169 306.315 210.882 308.025 201.907L306.06 201.533ZM301.122 223.2L281.442 290.72L283.363 291.28L303.043 223.76L301.122 223.2ZM282.403 290H260.163V292H282.403V290ZM261.124 290.726L241.924 223.206L240.001 223.754L259.201 291.274L261.124 290.726ZM241.937 223.258L236.977 201.498L235.028 201.942L239.988 223.702L241.937 223.258ZM236.003 200.72H235.683V202.72H236.003V200.72ZM234.685 201.787C235.324 211.375 235.643 219.244 235.643 225.4H237.643C237.643 219.183 237.321 211.265 236.68 201.653L234.685 201.787ZM235.643 225.4V291H237.643V225.4H235.643ZM236.643 290H215.363V292H236.643V290ZM337.355 291L336.411 290.671L335.948 292H337.355V291ZM377.195 176.6V175.6H376.484L376.251 176.271L377.195 176.6ZM401.195 176.6L402.138 176.268L401.903 175.6H401.195V176.6ZM441.515 291V292H442.928L442.458 290.668L441.515 291ZM417.355 291L416.401 291.301L416.622 292H417.355V291ZM409.675 266.68L410.629 266.379L410.408 265.68H409.675V266.68ZM368.395 266.68V265.68H367.657L367.44 266.385L368.395 266.68ZM360.875 291V292H361.613L361.83 291.295L360.875 291ZM384.075 215.96L383.121 215.659L383.12 215.663L384.075 215.96ZM373.835 248.92L372.88 248.623L372.477 249.92H373.835V248.92ZM404.075 248.92V249.92H405.433L405.03 248.623L404.075 248.92ZM393.835 215.96L392.868 216.215L392.874 216.236L392.88 216.257L393.835 215.96ZM389.195 198.36L390.162 198.105L389.966 197.36H389.195V198.36ZM388.875 198.36V197.36H388.094L387.905 198.117L388.875 198.36ZM338.299 291.329L378.139 176.929L376.251 176.271L336.411 290.671L338.299 291.329ZM377.195 177.6H401.195V175.6H377.195V177.6ZM400.252 176.932L440.572 291.332L442.458 290.668L402.138 176.268L400.252 176.932ZM441.515 290H417.355V292H441.515V290ZM418.309 290.699L410.629 266.379L408.721 266.981L416.401 291.301L418.309 290.699ZM409.675 265.68H368.395V267.68H409.675V265.68ZM367.44 266.385L359.92 290.705L361.83 291.295L369.35 266.975L367.44 266.385ZM360.875 290H337.355V292H360.875V290ZM383.12 215.663L372.88 248.623L374.79 249.217L385.03 216.257L383.12 215.663ZM373.835 249.92H404.075V247.92H373.835V249.92ZM405.03 248.623L394.79 215.663L392.88 216.257L403.12 249.217L405.03 248.623ZM394.802 215.705L390.162 198.105L388.228 198.615L392.868 216.215L394.802 215.705ZM389.195 197.36H388.875V199.36H389.195V197.36ZM387.905 198.117C385.986 205.791 384.392 211.635 383.121 215.659L385.029 216.261C386.318 212.179 387.924 206.289 389.845 198.603L387.905 198.117ZM478.019 291H477.019V292H478.019V291ZM478.019 176.6V175.6H477.019V176.6H478.019ZM556.899 184.92L556.231 185.665L556.232 185.665L556.899 184.92ZM548.099 229.24L547.777 228.293L547.099 228.523V229.24H548.099ZM548.099 229.72H547.099V230.464L547.811 230.678L548.099 229.72ZM563.459 240.12L562.665 240.728L562.673 240.739L563.459 240.12ZM559.299 281.88L558.648 281.121L558.639 281.128L559.299 281.88ZM501.219 239.8V238.8H500.219V239.8H501.219ZM501.219 271.8H500.219V272.8H501.219V271.8ZM541.059 267.64L541.714 268.396L541.721 268.39L541.728 268.383L541.059 267.64ZM540.579 244.12L539.934 244.884L539.94 244.889L539.946 244.894L540.579 244.12ZM501.219 222.68H500.219V223.68H501.219V222.68ZM538.659 219.16L539.263 219.957L539.272 219.95L539.28 219.943L538.659 219.16ZM538.819 199L538.187 199.775L538.194 199.781L538.201 199.786L538.819 199ZM501.219 195.48V194.48H500.219V195.48H501.219ZM479.019 291V176.6H477.019V291H479.019ZM478.019 177.6H529.219V175.6H478.019V177.6ZM529.219 177.6C541.354 177.6 550.299 180.346 556.231 185.665L557.566 184.175C551.126 178.401 541.617 175.6 529.219 175.6V177.6ZM556.232 185.665C562.08 190.898 565.019 197.764 565.019 206.36H567.019C567.019 197.249 563.877 189.822 557.566 184.175L556.232 185.665ZM565.019 206.36C565.019 211.773 563.579 216.253 560.751 219.863C557.916 223.484 553.622 226.31 547.777 228.293L548.42 230.187C554.523 228.116 559.188 225.103 562.326 221.097C565.471 217.081 567.019 212.147 567.019 206.36H565.019ZM547.099 229.24V229.72H549.099V229.24H547.099ZM547.811 230.678C554.022 232.541 558.96 235.892 562.665 240.728L564.253 239.512C560.277 234.322 554.975 230.739 548.386 228.762L547.811 230.678ZM562.673 240.739C566.469 245.56 568.379 251.31 568.379 258.04H570.379C570.379 250.903 568.342 244.707 564.244 239.501L562.673 240.739ZM568.379 258.04C568.379 267.929 565.113 275.579 558.648 281.121L559.95 282.639C566.925 276.661 570.379 268.418 570.379 258.04H568.379ZM558.639 281.128C551.942 287.002 542.604 290 530.499 290V292C542.927 292 552.789 288.918 559.958 282.632L558.639 281.128ZM530.499 290H478.019V292H530.499V290ZM500.219 239.8V271.8H502.219V239.8H500.219ZM501.219 272.8H527.939V270.8H501.219V272.8ZM527.939 272.8C533.65 272.8 538.282 271.37 541.714 268.396L540.404 266.884C537.436 269.457 533.321 270.8 527.939 270.8V272.8ZM541.728 268.383C545.159 265.295 546.859 261.228 546.859 256.28H544.859C544.859 260.718 543.359 264.225 540.39 266.897L541.728 268.383ZM546.859 256.28C546.859 250.804 545 246.446 541.212 243.346L539.946 244.894C543.197 247.554 544.859 251.303 544.859 256.28H546.859ZM541.224 243.356C537.593 240.292 532.921 238.8 527.299 238.8V240.8C532.556 240.8 536.738 242.188 539.934 244.884L541.224 243.356ZM527.299 238.8H501.219V240.8H527.299V238.8ZM501.219 223.68H526.339V221.68H501.219V223.68ZM526.339 223.68C531.608 223.68 535.948 222.472 539.263 219.957L538.054 218.363C535.183 220.541 531.31 221.68 526.339 221.68V223.68ZM539.28 219.943C542.641 217.278 544.299 213.561 544.299 208.92H542.299C542.299 213.026 540.864 216.135 538.037 218.376L539.28 219.943ZM544.299 208.92C544.299 204.39 542.696 200.775 539.437 198.214L538.201 199.786C540.914 201.918 542.299 204.917 542.299 208.92H544.299ZM539.45 198.225C536.335 195.686 532.083 194.48 526.819 194.48V196.48C531.795 196.48 535.543 197.62 538.187 199.775L539.45 198.225ZM526.819 194.48H501.219V196.48H526.819V194.48ZM500.219 195.48V222.68H502.219V195.48H500.219ZM583.019 291H582.019V292H583.019V291ZM583.019 176.6V175.6H582.019V176.6H583.019ZM667.179 176.6H668.179V175.6H667.179V176.6ZM667.179 196.12V197.12H668.179V196.12H667.179ZM606.219 196.12V195.12H605.219V196.12H606.219ZM606.219 221.72H605.219V222.72H606.219V221.72ZM659.659 221.72H660.659V220.72H659.659V221.72ZM659.659 240.76V241.76H660.659V240.76H659.659ZM606.219 240.76V239.76H605.219V240.76H606.219ZM606.219 271.64H605.219V272.64H606.219V271.64ZM667.659 271.64H668.659V270.64H667.659V271.64ZM667.659 291V292H668.659V291H667.659ZM584.019 291V176.6H582.019V291H584.019ZM583.019 177.6H667.179V175.6H583.019V177.6ZM666.179 176.6V196.12H668.179V176.6H666.179ZM667.179 195.12H606.219V197.12H667.179V195.12ZM605.219 196.12V221.72H607.219V196.12H605.219ZM606.219 222.72H659.659V220.72H606.219V222.72ZM658.659 221.72V240.76H660.659V221.72H658.659ZM659.659 239.76H606.219V241.76H659.659V239.76ZM605.219 240.76V271.64H607.219V240.76H605.219ZM606.219 272.64H667.659V270.64H606.219V272.64ZM666.659 271.64V291H668.659V271.64H666.659ZM667.659 290H583.019V292H667.659V290ZM676.161 196.12H675.161V197.12H676.161V196.12ZM676.161 176.6V175.6H675.161V176.6H676.161ZM768.161 176.6H769.161V175.6H768.161V176.6ZM768.161 196.12V197.12H769.161V196.12H768.161ZM733.761 196.12V195.12H732.761V196.12H733.761ZM733.761 291V292H734.761V291H733.761ZM710.561 291H709.561V292H710.561V291ZM710.561 196.12H711.561V195.12H710.561V196.12ZM677.161 196.12V176.6H675.161V196.12H677.161ZM676.161 177.6H768.161V175.6H676.161V177.6ZM767.161 176.6V196.12H769.161V176.6H767.161ZM768.161 195.12H733.761V197.12H768.161V195.12ZM732.761 196.12V291H734.761V196.12H732.761ZM733.761 290H710.561V292H733.761V290ZM711.561 291V196.12H709.561V291H711.561ZM710.561 195.12H676.161V197.12H710.561V195.12ZM779.894 291H778.894V292H779.894V291ZM779.894 176.6V175.6H778.894V176.6H779.894ZM864.054 176.6H865.054V175.6H864.054V176.6ZM864.054 196.12V197.12H865.054V196.12H864.054ZM803.094 196.12V195.12H802.094V196.12H803.094ZM803.094 221.72H802.094V222.72H803.094V221.72ZM856.534 221.72H857.534V220.72H856.534V221.72ZM856.534 240.76V241.76H857.534V240.76H856.534ZM803.094 240.76V239.76H802.094V240.76H803.094ZM803.094 271.64H802.094V272.64H803.094V271.64ZM864.534 271.64H865.534V270.64H864.534V271.64ZM864.534 291V292H865.534V291H864.534ZM780.894 291V176.6H778.894V291H780.894ZM779.894 177.6H864.054V175.6H779.894V177.6ZM863.054 176.6V196.12H865.054V176.6H863.054ZM864.054 195.12H803.094V197.12H864.054V195.12ZM802.094 196.12V221.72H804.094V196.12H802.094ZM803.094 222.72H856.534V220.72H803.094V222.72ZM855.534 221.72V240.76H857.534V221.72H855.534ZM856.534 239.76H803.094V241.76H856.534V239.76ZM802.094 240.76V271.64H804.094V240.76H802.094ZM803.094 272.64H864.534V270.64H803.094V272.64ZM863.534 271.64V291H865.534V271.64H863.534ZM864.534 290H779.894V292H864.534V290Z" fill="white" mask="url(#path-3-outside-2_160_2)"/>
</svg>
