<svg width="287" height="21" viewBox="0 0 287 21" fill="none" xmlns="http://www.w3.org/2000/svg">
<path d="M0.1 -1.43051e-06H20.83C22.93 -1.43051e-06 24.72 0.289999 26.2 0.87C27.68 1.43 28.89 2.19 29.83 3.15C30.77 4.11 31.45 5.23 31.87 6.51C32.31 7.79 32.53 9.14 32.53 10.56C32.53 11.98 32.31 13.33 31.87 14.61C31.45 15.87 30.77 16.98 29.83 17.94C28.89 18.88 27.68 19.63 26.2 20.19C24.72 20.73 22.93 21 20.83 21H0.1V-1.43051e-06ZM7.3 5.64V15.39H19.18C20.38 15.39 21.38 15.27 22.18 15.03C22.98 14.77 23.61 14.42 24.07 13.98C24.53 13.54 24.85 13.03 25.03 12.45C25.23 11.85 25.33 11.21 25.33 10.53C25.33 9.85 25.23 9.22 25.03 8.64C24.85 8.04 24.53 7.52 24.07 7.08C23.61 6.64 22.98 6.29 22.18 6.03C21.38 5.77 20.38 5.64 19.18 5.64H7.3ZM68.7299 21H60.5399L58.4999 17.85H42.7199L40.7099 21H32.5199L46.0499 -1.43051e-06H55.1999L68.7299 21ZM46.1699 12.45H55.0499L50.6099 5.55L46.1699 12.45ZM69.9438 21V-1.43051e-06H80.3238L89.2938 13.77L98.0238 -1.43051e-06H108.554V21H101.354V6.84L92.3838 21H86.3538L77.1438 6.87V21H69.9438ZM145.956 21H137.766L135.726 17.85H119.946L117.936 21H109.746L123.276 -1.43051e-06H132.426L145.956 21ZM123.396 12.45H132.276L127.836 5.55L123.396 12.45ZM160.676 -1.43051e-06H183.986C186.186 -1.43051e-06 187.846 0.499999 188.966 1.5C190.106 2.5 190.676 3.85 190.676 5.55C190.676 6.01 190.596 6.48 190.436 6.96C190.296 7.44 190.096 7.9 189.836 8.34C189.576 8.76 189.266 9.14 188.906 9.48C188.546 9.8 188.166 10.05 187.766 10.23C188.446 10.41 189.016 10.68 189.476 11.04C189.956 11.38 190.336 11.77 190.616 12.21C190.916 12.63 191.126 13.07 191.246 13.53C191.366 13.99 191.426 14.41 191.426 14.79C191.426 15.81 191.286 16.71 191.006 17.49C190.726 18.27 190.256 18.92 189.596 19.44C188.936 19.96 188.066 20.35 186.986 20.61C185.926 20.87 184.616 21 183.056 21H160.676V-1.43051e-06ZM167.876 15.3H181.406C182.266 15.3 182.826 15.23 183.086 15.09C183.366 14.95 183.506 14.67 183.506 14.25C183.506 13.85 183.366 13.58 183.086 13.44C182.826 13.3 182.266 13.23 181.406 13.23H167.876V15.3ZM167.876 7.8H180.656C181.516 7.8 182.076 7.73 182.336 7.59C182.616 7.45 182.756 7.17 182.756 6.75C182.756 6.35 182.616 6.08 182.336 5.94C182.076 5.8 181.516 5.73 180.656 5.73H167.876V7.8ZM201.919 5.7V7.8H222.109V13.2H201.919V15.3H223.969V21H194.719V-1.43051e-06H223.969V5.7H201.919ZM243.689 5.7V21H236.489V5.7H225.029V-1.43051e-06H255.119V5.7H243.689ZM264.732 5.7V7.8H284.922V13.2H264.732V15.3H286.782V21H257.532V-1.43051e-06H286.782V5.7H264.732Z" fill="white"/>
</svg>
