<svg width="392" height="244" viewBox="0 0 392 244" fill="none" xmlns="http://www.w3.org/2000/svg">
<path d="M21.3357 84.1983C18.9207 86.8433 17.6557 87.9933 16.6207 87.9933C16.1607 87.9933 15.7007 87.6483 15.2407 87.1883C14.0907 85.9233 14.4357 84.7733 16.2757 82.3583C20.4157 77.0683 27.5457 72.9283 35.9407 70.8583C39.9657 69.9383 41.0007 69.4783 41.9207 68.4433C42.4957 67.7533 43.3007 67.1783 43.9907 67.1783C44.9107 67.1783 46.4057 68.2133 46.4057 68.9033C46.4057 69.1333 48.2457 69.4783 50.4307 69.5933C61.3557 70.2833 70.4407 75.2283 73.8907 82.2433C75.2707 85.1183 76.4207 89.9483 76.4207 93.0533C76.4207 102.713 70.7857 118.123 61.3557 133.763C59.8607 136.178 58.7107 138.708 58.7107 139.283C58.7107 140.203 58.2507 140.893 57.3307 141.583C56.6407 142.043 54.3407 144.918 52.3857 147.908C41.5757 163.663 27.4307 181.258 16.6207 192.068C8.68568 199.888 4.43068 203.223 2.13067 203.223C1.44067 203.223 0.980675 202.993 0.635675 202.648C-2.92932 198.968 9.14568 173.323 20.7607 160.098C22.6007 158.028 24.3257 155.843 24.7857 155.153C25.1307 154.578 26.8557 147.563 28.5807 139.628C33.4107 117.548 37.3207 100.183 39.6207 89.4883C42.1507 78.2183 42.4957 76.4933 41.9207 77.4133C41.4607 78.3333 36.8607 93.3983 35.4807 98.8033C34.3307 103.518 33.5257 104.783 32.0307 104.783C30.6507 104.783 29.9607 103.978 29.9607 102.253C29.9607 100.528 32.3757 92.3633 35.7107 82.3583C37.6657 76.4933 38.3557 74.7683 37.0907 74.7683C36.4007 74.7683 35.3657 75.2283 33.6407 75.8033C28.5807 77.7583 25.0157 80.1733 21.3357 84.1983ZM44.6807 80.7483C43.9907 84.0833 42.0357 92.2483 40.4257 98.8033C38.0107 108.923 28.6957 150.323 28.6957 151.243C28.9257 151.243 30.3057 150.208 32.1457 148.828C33.9857 147.333 36.7457 145.263 38.2407 144.458C39.7357 143.538 42.1507 142.273 43.5307 141.583C47.0957 139.973 55.6057 136.983 56.4107 136.983C57.6757 136.983 64.9207 123.298 68.6007 114.098C72.1657 105.128 73.0857 101.103 73.0857 94.2033C73.0857 86.8433 72.2807 84.4283 68.6007 80.5183C63.6557 75.2283 56.5257 73.3883 49.5107 73.3883C47.6707 73.3883 46.2907 73.6183 46.1757 73.9633C46.0607 74.3083 45.3707 77.2983 44.6807 80.7483ZM27.5457 178.728C36.0557 168.608 54.1107 143.193 53.0757 142.848C52.1557 142.503 44.6807 144.918 41.3457 146.528C37.8957 148.368 33.1807 151.588 29.6157 154.923L27.3157 157.108L25.9357 163.318C25.2457 166.653 24.6707 170.448 24.6707 171.713C24.6707 174.128 23.6357 180.913 22.9457 182.178C22.3707 183.098 20.6457 183.213 19.9557 182.408C19.7257 182.063 19.6107 179.878 19.7257 176.658C19.9557 172.058 20.0707 171.253 20.8757 170.448C21.7957 169.643 23.9807 161.823 23.5207 161.363C23.1757 161.363 21.9107 162.858 17.8857 168.148C9.60568 179.073 1.32568 195.173 1.32568 200.348C1.32568 201.728 1.55567 202.418 2.13067 202.418C7.19068 202.418 24.5557 182.408 27.5457 178.728Z" fill="white"/>
<path d="M102.954 139.168C104.219 139.168 104.909 139.973 104.909 141.353C104.909 142.273 104.104 143.193 100.424 146.298C97.8942 148.253 92.8342 152.968 89.0392 156.648C82.9442 162.513 80.5292 164.583 78.3442 164.583C77.7692 164.583 77.1942 164.353 76.6192 164.123C74.7792 163.433 73.7442 161.823 73.2842 159.063L73.0542 157.338L68.2242 161.248C62.7042 165.733 59.0242 167.803 56.4942 167.803C55.4592 167.803 54.6542 167.458 53.9642 166.768C51.7792 164.698 52.9292 161.248 57.6442 155.383C62.8192 148.943 69.3742 144.573 73.6292 144.573C74.0892 144.573 74.5492 144.688 75.0092 144.803C77.8842 145.723 79.8392 149.058 78.3442 150.553C77.9992 150.898 77.5392 151.013 76.9642 151.013C76.0442 151.013 75.1242 150.668 74.3192 149.978C73.3992 149.058 72.9392 148.943 71.9042 149.288C68.7992 150.208 64.1992 153.658 60.8642 157.683C58.5642 160.328 57.0692 162.858 57.4142 163.203C58.1042 163.203 61.7842 160.558 65.9242 156.993C71.2142 152.393 72.4792 151.473 74.3192 151.473C76.2742 151.473 77.4242 152.968 77.7692 156.188C77.9992 159.063 78.3442 160.328 78.9192 160.328C79.8392 160.328 85.2442 155.613 93.2942 147.793C98.8142 142.273 102.379 139.168 102.954 139.168Z" fill="white"/>
<path d="M139.828 159.638C140.518 161.248 139.023 162.513 137.413 162.513C136.608 162.513 135.803 162.168 135.228 161.593C134.193 160.558 134.193 160.558 135.113 147.678L135.343 143.768L133.733 145.263C131.778 147.103 127.408 153.658 122.923 161.018C119.703 166.308 118.438 168.263 117.403 168.263C117.058 168.263 116.713 168.033 116.368 167.688C115.563 166.883 115.678 165.733 117.863 158.258C120.163 150.323 120.853 144.458 119.703 144.458C118.093 144.458 113.723 149.748 107.053 159.868C102.798 166.308 101.418 167.803 100.153 167.803C97.8529 167.803 97.7379 166.423 99.3479 157.798C99.9229 154.463 100.498 150.438 100.498 148.828C100.383 146.873 100.728 145.033 101.418 143.078C102.338 140.318 102.453 140.203 103.948 140.203C105.443 140.203 105.443 140.318 105.558 141.928C105.673 142.963 105.673 145.033 105.443 146.528C105.213 148.713 104.868 149.633 104.063 150.438C103.143 151.243 102.798 152.278 102.108 156.418C101.648 159.178 101.303 161.593 101.418 161.708C101.533 161.708 103.833 158.833 106.363 155.153C112.113 146.873 116.598 141.928 119.013 141.583C123.383 140.663 124.303 144.803 121.773 154.693C121.198 156.763 120.968 158.258 121.083 158.258C121.313 158.028 123.153 155.268 125.223 152.163C130.053 144.803 133.273 141.353 135.113 141.353C137.758 141.353 137.873 142.273 136.723 155.153L136.493 158.603H137.873C138.908 158.603 139.368 158.833 139.828 159.638Z" fill="white"/>
<path d="M188.193 139.168C189.458 139.168 190.148 139.973 190.148 141.353C190.148 142.273 189.343 143.193 185.663 146.298C183.133 148.253 178.073 152.968 174.278 156.648C168.183 162.513 165.768 164.583 163.583 164.583C163.008 164.583 162.433 164.353 161.858 164.123C160.018 163.433 158.983 161.823 158.523 159.063L158.293 157.338L153.463 161.248C147.943 165.733 144.263 167.803 141.733 167.803C140.698 167.803 139.893 167.458 139.203 166.768C137.018 164.698 138.168 161.248 142.883 155.383C148.058 148.943 154.613 144.573 158.868 144.573C159.328 144.573 159.788 144.688 160.248 144.803C163.123 145.723 165.078 149.058 163.583 150.553C163.238 150.898 162.778 151.013 162.203 151.013C161.283 151.013 160.363 150.668 159.558 149.978C158.638 149.058 158.178 148.943 157.143 149.288C154.038 150.208 149.438 153.658 146.103 157.683C143.803 160.328 142.308 162.858 142.653 163.203C143.343 163.203 147.023 160.558 151.163 156.993C156.453 152.393 157.718 151.473 159.558 151.473C161.513 151.473 162.663 152.968 163.008 156.188C163.238 159.063 163.583 160.328 164.158 160.328C165.078 160.328 170.483 155.613 178.533 147.793C184.053 142.273 187.618 139.168 188.193 139.168Z" fill="white"/>
<path d="M169.814 212.633C165.334 212.633 158.614 211.233 158.614 205.493C158.754 200.313 163.374 193.873 172.614 186.453C177.374 182.533 178.634 181.273 179.054 179.733C179.334 178.753 181.154 170.633 183.114 161.953C185.914 149.633 186.614 145.713 186.194 144.873C185.214 143.333 185.494 142.353 186.894 140.673C188.014 139.273 188.994 135.633 192.774 118.973C195.294 107.913 198.794 92.9333 200.614 85.6533C204.954 68.5733 204.814 68.9933 203.414 69.4133C202.014 69.6933 200.054 68.1533 200.054 66.7533C200.054 66.1933 199.914 65.7733 199.634 65.7733C198.794 65.7733 190.954 71.2333 187.034 74.5933C184.654 76.5533 182.554 78.0933 182.134 78.0933C180.734 78.0933 179.054 76.4133 179.054 74.8733C179.054 71.9333 187.454 65.3533 197.674 60.1733L202.574 57.7933L208.314 40.9933C217.974 13.2733 221.334 5.43334 223.714 5.01334C225.114 4.87333 226.514 5.85333 226.514 7.11334C226.514 7.53334 224.974 12.8533 223.154 18.7333C221.334 24.6133 218.534 34.5533 216.714 40.7133C214.894 47.0133 213.354 52.4733 213.214 52.8933C213.214 53.1733 213.214 53.3133 213.634 53.3133C214.334 53.3133 216.014 52.8933 219.234 51.9133C233.094 47.8533 245.274 45.8933 255.774 45.8933C266.974 45.8933 272.994 47.8533 275.654 52.6133C276.914 54.7133 277.054 55.4133 276.914 58.3533C276.354 65.0733 271.174 72.4933 258.854 84.6733C246.254 96.9933 234.074 107.073 207.474 127.233C193.754 137.593 192.634 138.713 192.214 141.093C191.934 142.913 192.074 143.053 192.914 142.913C201.874 140.953 225.114 136.613 230.154 135.913C233.794 135.353 237.154 135.213 240.094 135.213C244.714 135.213 248.214 135.773 250.034 136.753C254.794 139.413 255.214 144.733 251.154 152.713C246.394 162.373 233.794 176.653 220.774 187.013C208.454 196.813 192.354 206.613 182.694 209.973C180.734 210.673 179.054 211.653 178.914 212.073C178.634 212.773 177.934 221.593 177.234 231.813C176.954 235.733 176.674 237.133 175.834 237.973C174.574 239.093 173.874 239.233 172.194 238.113C170.654 236.993 170.654 234.753 172.054 222.853C172.754 217.953 173.174 213.613 173.174 213.193C173.174 212.773 172.194 212.633 169.814 212.633ZM193.754 133.253C193.474 134.513 192.074 135.493 208.594 122.473C233.374 102.873 244.854 93.0733 256.334 81.4533C266.974 70.8133 272.294 62.9733 272.434 57.9333C272.434 50.6533 261.514 50.6533 256.614 50.6533C252.974 50.6533 248.914 50.9333 245.274 51.4933C234.634 52.8933 213.494 58.6333 211.534 60.5933C210.414 61.5733 203.834 88.0333 197.394 117.713C195.574 125.693 194.034 132.693 193.754 133.253ZM166.874 194.993C162.954 199.333 161.274 202.553 161.414 205.633C161.554 207.733 161.834 208.153 163.514 208.993C164.774 209.553 166.734 209.833 169.534 209.833H173.594L174.294 206.053C174.574 203.813 175.554 198.353 176.394 193.873C177.234 189.253 177.654 186.033 177.234 186.033C175.274 187.153 169.674 192.053 166.874 194.993ZM181.574 193.173C179.894 203.253 179.334 208.293 179.754 208.293C180.034 208.293 182.414 207.453 184.934 206.333C211.394 195.413 246.394 163.493 250.874 146.273C251.994 142.073 251.154 139.833 248.074 138.573C246.674 138.013 244.294 137.593 241.214 137.593C234.634 137.593 224.414 139.133 210.274 141.933C203.974 143.193 197.114 144.593 195.294 144.873C193.334 145.293 191.654 145.713 191.374 145.853C191.094 146.133 184.514 175.813 184.514 176.793C184.794 176.793 186.894 175.533 189.414 173.853C192.074 172.033 197.394 168.953 201.314 166.853C207.334 163.493 208.454 162.933 209.714 163.493C210.694 163.773 211.114 164.333 211.254 165.593C211.534 167.693 211.114 167.973 204.954 170.353C196.554 173.713 183.394 180.713 183.394 181.833C183.394 181.973 182.554 187.153 181.574 193.173Z" fill="white"/>
<path d="M311.854 161.253C313.674 162.373 313.954 164.473 312.274 165.873C308.774 169.233 286.374 177.213 279.654 177.213C271.674 177.213 263.974 170.633 261.874 163.213C261.174 160.693 261.174 160.693 259.774 161.393C258.234 162.233 256.694 162.653 255.154 162.653C253.054 162.653 251.234 161.813 249.834 160.133C247.874 157.893 247.874 153.693 249.694 152.433C250.394 151.873 251.234 151.593 251.934 151.593C253.754 151.593 255.434 153.133 255.434 155.373C255.434 156.353 255.854 156.913 256.694 156.913C257.254 156.913 258.094 156.633 259.214 156.073C260.474 155.513 260.754 154.953 260.754 153.693C260.754 149.913 264.254 135.493 269.434 135.493C270.274 135.493 271.114 135.913 271.954 136.753C273.214 138.013 273.214 138.433 273.074 141.793C272.794 146.273 270.554 151.173 267.054 155.093C265.374 157.053 264.534 158.313 264.534 159.433C264.534 161.813 267.474 167.273 269.994 169.513C272.654 171.893 275.314 173.153 278.814 173.153C283.714 173.153 290.294 170.633 300.654 165.453C307.514 161.953 309.614 160.973 310.734 160.973C311.154 160.973 311.434 161.113 311.854 161.253ZM264.674 149.633L264.114 152.153L265.514 150.893C266.214 150.333 267.474 148.233 268.314 146.553C269.994 143.193 270.554 138.713 269.434 138.713C267.754 139.273 265.654 144.173 264.674 149.633Z" fill="white"/>
<path d="M307.891 197.653C308.871 197.653 309.851 198.353 310.551 199.053C311.951 200.453 311.951 200.453 311.811 207.873C311.531 214.453 311.391 215.573 310.411 216.833C309.571 217.953 308.591 218.513 307.471 218.513C306.911 218.513 306.211 218.233 305.511 217.813C303.691 216.553 302.711 212.213 302.711 205.073C302.711 193.173 306.771 171.753 314.611 143.613C316.711 135.913 317.131 133.253 316.851 131.433C316.711 129.473 316.991 128.213 318.531 124.293C319.651 121.633 320.351 119.393 320.211 119.253C319.511 119.253 311.391 120.933 306.911 122.193C304.111 123.033 303.831 123.173 304.111 124.433C305.091 128.073 301.171 130.173 293.331 130.173C288.851 130.173 288.011 130.033 287.451 129.193C286.471 127.653 287.731 126.533 292.491 124.853C295.011 123.873 297.531 122.893 298.231 122.473C298.931 122.193 300.191 121.773 301.171 121.773C304.951 121.773 313.911 119.533 317.831 118.553L320.911 117.993L323.151 112.533C326.371 104.553 330.711 95.3133 331.691 94.1933C332.251 93.6333 333.091 93.3533 333.931 93.4933C335.751 93.6333 335.891 95.5933 334.211 100.073C333.371 102.173 331.691 106.793 330.431 110.433L328.051 117.013L329.451 116.733C334.911 115.613 354.651 114.493 374.531 113.933C389.091 113.653 390.211 113.653 391.051 114.493C391.611 115.053 392.031 116.033 391.891 116.593C391.751 117.993 391.051 118.413 388.531 118.413C387.411 118.413 385.871 118.413 383.771 118.133C373.551 117.013 362.631 116.453 352.131 116.453C343.451 116.453 331.831 117.153 328.751 117.853C327.911 117.993 327.211 119.533 325.391 124.993C324.131 128.773 322.591 132.413 322.031 132.973C320.211 134.933 311.531 169.793 308.731 187.153C307.051 197.233 306.911 197.653 307.891 197.653Z" fill="white"/>
<path d="M382.674 161.253C384.494 162.373 384.774 164.473 383.094 165.873C379.594 169.233 357.194 177.213 350.474 177.213C342.494 177.213 334.794 170.633 332.694 163.213C331.994 160.693 331.994 160.693 330.594 161.393C329.054 162.233 327.514 162.653 325.974 162.653C323.874 162.653 322.054 161.813 320.654 160.133C318.694 157.893 318.694 153.693 320.514 152.433C321.214 151.873 322.054 151.593 322.754 151.593C324.574 151.593 326.254 153.133 326.254 155.373C326.254 156.353 326.674 156.913 327.514 156.913C328.074 156.913 328.914 156.633 330.034 156.073C331.294 155.513 331.574 154.953 331.574 153.693C331.574 149.913 335.074 135.493 340.254 135.493C341.094 135.493 341.934 135.913 342.774 136.753C344.034 138.013 344.034 138.433 343.894 141.793C343.614 146.273 341.374 151.173 337.874 155.093C336.194 157.053 335.354 158.313 335.354 159.433C335.354 161.813 338.294 167.273 340.814 169.513C343.474 171.893 346.134 173.153 349.634 173.153C354.534 173.153 361.114 170.633 371.474 165.453C378.334 161.953 380.434 160.973 381.554 160.973C381.974 160.973 382.254 161.113 382.674 161.253ZM335.494 149.633L334.934 152.153L336.334 150.893C337.034 150.333 338.294 148.233 339.134 146.553C340.814 143.193 341.374 138.713 340.254 138.713C338.574 139.273 336.474 144.173 335.494 149.633Z" fill="white"/>
</svg>
