<svg width="287" height="21" viewBox="0 0 287 21" fill="none" xmlns="http://www.w3.org/2000/svg">
<mask id="path-1-inside-1_233_27" fill="white">
<path d="M0.1 -1.43051e-06H20.83C22.93 -1.43051e-06 24.72 0.289999 26.2 0.87C27.68 1.43 28.89 2.19 29.83 3.15C30.77 4.11 31.45 5.23 31.87 6.51C32.31 7.79 32.53 9.14 32.53 10.56C32.53 11.98 32.31 13.33 31.87 14.61C31.45 15.87 30.77 16.98 29.83 17.94C28.89 18.88 27.68 19.63 26.2 20.19C24.72 20.73 22.93 21 20.83 21H0.1V-1.43051e-06ZM7.3 5.64V15.39H19.18C20.38 15.39 21.38 15.27 22.18 15.03C22.98 14.77 23.61 14.42 24.07 13.98C24.53 13.54 24.85 13.03 25.03 12.45C25.23 11.85 25.33 11.21 25.33 10.53C25.33 9.85 25.23 9.22 25.03 8.64C24.85 8.04 24.53 7.52 24.07 7.08C23.61 6.64 22.98 6.29 22.18 6.03C21.38 5.77 20.38 5.64 19.18 5.64H7.3ZM68.7299 21H60.5399L58.4999 17.85H42.7199L40.7099 21H32.5199L46.0499 -1.43051e-06H55.1999L68.7299 21ZM46.1699 12.45H55.0499L50.6099 5.55L46.1699 12.45ZM69.9438 21V-1.43051e-06H80.3238L89.2938 13.77L98.0238 -1.43051e-06H108.554V21H101.354V6.84L92.3838 21H86.3538L77.1438 6.87V21H69.9438ZM145.956 21H137.766L135.726 17.85H119.946L117.936 21H109.746L123.276 -1.43051e-06H132.426L145.956 21ZM123.396 12.45H132.276L127.836 5.55L123.396 12.45ZM160.676 -1.43051e-06H183.986C186.186 -1.43051e-06 187.846 0.499999 188.966 1.5C190.106 2.5 190.676 3.85 190.676 5.55C190.676 6.01 190.596 6.48 190.436 6.96C190.296 7.44 190.096 7.9 189.836 8.34C189.576 8.76 189.266 9.14 188.906 9.48C188.546 9.8 188.166 10.05 187.766 10.23C188.446 10.41 189.016 10.68 189.476 11.04C189.956 11.38 190.336 11.77 190.616 12.21C190.916 12.63 191.126 13.07 191.246 13.53C191.366 13.99 191.426 14.41 191.426 14.79C191.426 15.81 191.286 16.71 191.006 17.49C190.726 18.27 190.256 18.92 189.596 19.44C188.936 19.96 188.066 20.35 186.986 20.61C185.926 20.87 184.616 21 183.056 21H160.676V-1.43051e-06ZM167.876 15.3H181.406C182.266 15.3 182.826 15.23 183.086 15.09C183.366 14.95 183.506 14.67 183.506 14.25C183.506 13.85 183.366 13.58 183.086 13.44C182.826 13.3 182.266 13.23 181.406 13.23H167.876V15.3ZM167.876 7.8H180.656C181.516 7.8 182.076 7.73 182.336 7.59C182.616 7.45 182.756 7.17 182.756 6.75C182.756 6.35 182.616 6.08 182.336 5.94C182.076 5.8 181.516 5.73 180.656 5.73H167.876V7.8ZM201.919 5.7V7.8H222.109V13.2H201.919V15.3H223.969V21H194.719V-1.43051e-06H223.969V5.7H201.919ZM243.689 5.7V21H236.489V5.7H225.029V-1.43051e-06H255.119V5.7H243.689ZM264.732 5.7V7.8H284.922V13.2H264.732V15.3H286.782V21H257.532V-1.43051e-06H286.782V5.7H264.732Z"/>
</mask>
<path d="M0.1 -1.43051e-06V-1H-0.9V-1.43051e-06H0.1ZM26.2 0.87L25.8351 1.80112L25.8461 1.80529L26.2 0.87ZM29.83 3.15L30.5445 2.45037L30.5445 2.45037L29.83 3.15ZM31.87 6.51L30.9198 6.8218L30.9243 6.83508L31.87 6.51ZM31.87 14.61L30.9243 14.2849L30.9213 14.2938L31.87 14.61ZM29.83 17.94L30.5371 18.6471L30.5445 18.6396L29.83 17.94ZM26.2 20.19L26.5428 21.1295L26.5539 21.1253L26.2 20.19ZM0.1 21H-0.9V22H0.1V21ZM7.3 5.64V4.64H6.3V5.64H7.3ZM7.3 15.39H6.3V16.39H7.3V15.39ZM22.18 15.03L22.4673 15.9878L22.4783 15.9846L22.4891 15.981L22.18 15.03ZM25.03 12.45L24.0813 12.1338L24.078 12.1437L24.0749 12.1536L25.03 12.45ZM25.03 8.64L24.0722 8.92735L24.078 8.9468L24.0846 8.96599L25.03 8.64ZM24.07 7.08L23.3788 7.80264L23.3788 7.80264L24.07 7.08ZM22.18 6.03L21.8709 6.98103L21.8709 6.98103L22.18 6.03ZM0.1 0.999999H20.83V-1H0.1V0.999999ZM20.83 0.999999C22.843 0.999999 24.5021 1.27866 25.8351 1.80106L26.5649 -0.061057C24.9379 -0.698659 23.017 -1 20.83 -1V0.999999ZM25.8461 1.80529C27.2141 2.32292 28.2936 3.01029 29.1155 3.84962L30.5445 2.45037C29.4864 1.36971 28.1459 0.537082 26.5539 -0.0652864L25.8461 1.80529ZM29.1155 3.84962C29.948 4.6998 30.5475 5.687 30.9198 6.82177L32.8202 6.19823C32.3525 4.773 31.592 3.52019 30.5445 2.45037L29.1155 3.84962ZM30.9243 6.83508C31.3266 8.00541 31.53 9.24514 31.53 10.56H33.53C33.53 9.03486 33.2934 7.57459 32.8157 6.18492L30.9243 6.83508ZM31.53 10.56C31.53 11.8749 31.3266 13.1146 30.9243 14.2849L32.8157 14.9351C33.2934 13.5454 33.53 12.0851 33.53 10.56H31.53ZM30.9213 14.2938C30.5499 15.4081 29.9506 16.3875 29.1155 17.2404L30.5445 18.6396C31.5894 17.5725 32.3501 16.3319 32.8187 14.9262L30.9213 14.2938ZM29.1229 17.2329C28.3004 18.0554 27.2184 18.7355 25.8461 19.2547L26.5539 21.1253C28.1416 20.5245 29.4796 19.7046 30.5371 18.6471L29.1229 17.2329ZM25.8572 19.2506C24.5169 19.7396 22.8497 20 20.83 20V22C23.0103 22 24.9231 21.7204 26.5428 21.1294L25.8572 19.2506ZM20.83 20H0.1V22H20.83V20ZM1.1 21V-1.43051e-06H-0.9V21H1.1ZM6.3 5.64V15.39H8.3V5.64H6.3ZM7.3 16.39H19.18V14.39H7.3V16.39ZM19.18 16.39C20.4387 16.39 21.5432 16.2651 22.4673 15.9878L21.8927 14.0722C21.2168 14.2749 20.3213 14.39 19.18 14.39V16.39ZM22.4891 15.981C23.3881 15.6889 24.1636 15.2743 24.7612 14.7026L23.3788 13.2574C23.0564 13.5657 22.5719 13.8511 21.8709 14.079L22.4891 15.981ZM24.7612 14.7026C25.3378 14.1511 25.7523 13.4965 25.9851 12.7464L24.0749 12.1536C23.9477 12.5635 23.7222 12.9289 23.3788 13.2574L24.7612 14.7026ZM25.9787 12.7662C26.2151 12.0569 26.33 11.3094 26.33 10.53H24.33C24.33 11.1106 24.2449 11.6431 24.0813 12.1338L25.9787 12.7662ZM26.33 10.53C26.33 9.751 26.2152 9.00961 25.9754 8.31401L24.0846 8.96599C24.2448 9.43039 24.33 9.949 24.33 10.53H26.33ZM25.9878 8.35265C25.7573 7.58415 25.3441 6.91492 24.7612 6.35736L23.3788 7.80264C23.7159 8.12508 23.9427 8.49585 24.0722 8.92735L25.9878 8.35265ZM24.7612 6.35736C24.1636 5.78567 23.3881 5.37113 22.4891 5.07897L21.8709 6.98103C22.5719 7.20887 23.0564 7.49433 23.3788 7.80264L24.7612 6.35736ZM22.4891 5.07897C21.5567 4.77593 20.4441 4.64 19.18 4.64V6.64C20.3159 6.64 21.2033 6.76407 21.8709 6.98103L22.4891 5.07897ZM19.18 4.64H7.3V6.64H19.18V4.64ZM68.7299 21V22H70.5638L69.5706 20.4584L68.7299 21ZM60.5399 21L59.7006 21.5436L59.9962 22H60.5399V21ZM58.4999 17.85L59.3393 17.3064L59.0437 16.85H58.4999V17.85ZM42.7199 17.85V16.85H42.1718L41.8769 17.3121L42.7199 17.85ZM40.7099 21V22H41.2581L41.5529 21.5379L40.7099 21ZM32.5199 21L31.6793 20.4584L30.6861 22H32.5199V21ZM46.0499 -1.43051e-06V-1H45.5046L45.2093 -0.541608L46.0499 -1.43051e-06ZM55.1999 -1.43051e-06L56.0406 -0.541608L55.7452 -1H55.1999V-1.43051e-06ZM46.1699 12.45L45.329 11.9089L44.3373 13.45H46.1699V12.45ZM55.0499 12.45V13.45H56.8825L55.8909 11.9089L55.0499 12.45ZM50.6099 5.55L51.4509 5.00887L50.6099 3.702L49.769 5.00887L50.6099 5.55ZM68.7299 20H60.5399V22H68.7299V20ZM61.3793 20.4564L59.3393 17.3064L57.6606 18.3936L59.7006 21.5436L61.3793 20.4564ZM58.4999 16.85H42.7199V18.85H58.4999V16.85ZM41.8769 17.3121L39.8669 20.4621L41.5529 21.5379L43.5629 18.3879L41.8769 17.3121ZM40.7099 20H32.5199V22H40.7099V20ZM33.3606 21.5416L46.8906 0.541606L45.2093 -0.541608L31.6793 20.4584L33.3606 21.5416ZM46.0499 0.999999H55.1999V-1H46.0499V0.999999ZM54.3593 0.541606L67.8893 21.5416L69.5706 20.4584L56.0406 -0.541608L54.3593 0.541606ZM46.1699 13.45H55.0499V11.45H46.1699V13.45ZM55.8909 11.9089L51.4509 5.00887L49.769 6.09113L54.209 12.9911L55.8909 11.9089ZM49.769 5.00887L45.329 11.9089L47.0109 12.9911L51.4509 6.09113L49.769 5.00887ZM69.9438 21H68.9438V22H69.9438V21ZM69.9438 -1.43051e-06V-1H68.9438V-1.43051e-06H69.9438ZM80.3238 -1.43051e-06L81.1617 -0.545824L80.8658 -1H80.3238V-1.43051e-06ZM89.2938 13.77L88.4558 14.3158L89.3052 15.6196L90.1383 14.3054L89.2938 13.77ZM98.0238 -1.43051e-06V-1H97.4737L97.1792 -0.535447L98.0238 -1.43051e-06ZM108.554 -1.43051e-06H109.554V-1H108.554V-1.43051e-06ZM108.554 21V22H109.554V21H108.554ZM101.354 21H100.354V22H101.354V21ZM101.354 6.84H102.354V3.39272L100.509 6.30486L101.354 6.84ZM92.3838 21V22H92.934L93.2285 21.5351L92.3838 21ZM86.3538 21L85.516 21.5461L85.8119 22H86.3538V21ZM77.1438 6.87L77.9815 6.32395L76.1438 3.50447V6.87H77.1438ZM77.1438 21V22H78.1438V21H77.1438ZM70.9438 21V-1.43051e-06H68.9438V21H70.9438ZM69.9438 0.999999H80.3238V-1H69.9438V0.999999ZM79.4858 0.545821L88.4558 14.3158L90.1317 13.2242L81.1617 -0.545824L79.4858 0.545821ZM90.1383 14.3054L98.8683 0.535445L97.1792 -0.535447L88.4492 13.2346L90.1383 14.3054ZM98.0238 0.999999H108.554V-1H98.0238V0.999999ZM107.554 -1.43051e-06V21H109.554V-1.43051e-06H107.554ZM108.554 20H101.354V22H108.554V20ZM102.354 21V6.84H100.354V21H102.354ZM100.509 6.30486L91.539 20.4649L93.2285 21.5351L102.199 7.37514L100.509 6.30486ZM92.3838 20H86.3538V22H92.3838V20ZM87.1915 20.4539L77.9815 6.32395L76.306 7.41605L85.516 21.5461L87.1915 20.4539ZM76.1438 6.87V21H78.1438V6.87H76.1438ZM77.1438 20H69.9438V22H77.1438V20ZM145.956 21V22H147.79L146.797 20.4584L145.956 21ZM137.766 21L136.927 21.5436L137.223 22H137.766V21ZM135.726 17.85L136.566 17.3064L136.27 16.85H135.726V17.85ZM119.946 17.85V16.85H119.398L119.103 17.3121L119.946 17.85ZM117.936 21V22H118.485L118.779 21.5379L117.936 21ZM109.746 21L108.906 20.4584L107.913 22H109.746V21ZM123.276 -1.43051e-06V-1H122.731L122.436 -0.541608L123.276 -1.43051e-06ZM132.426 -1.43051e-06L133.267 -0.541608L132.972 -1H132.426V-1.43051e-06ZM123.396 12.45L122.556 11.9089L121.564 13.45H123.396V12.45ZM132.276 12.45V13.45H134.109L133.117 11.9089L132.276 12.45ZM127.836 5.55L128.677 5.00887L127.836 3.702L126.996 5.00887L127.836 5.55ZM145.956 20H137.766V22H145.956V20ZM138.606 20.4564L136.566 17.3064L134.887 18.3936L136.927 21.5436L138.606 20.4564ZM135.726 16.85H119.946V18.85H135.726V16.85ZM119.103 17.3121L117.093 20.4621L118.779 21.5379L120.789 18.3879L119.103 17.3121ZM117.936 20H109.746V22H117.936V20ZM110.587 21.5416L124.117 0.541606L122.436 -0.541608L108.906 20.4584L110.587 21.5416ZM123.276 0.999999H132.426V-1H123.276V0.999999ZM131.586 0.541606L145.116 21.5416L146.797 20.4584L133.267 -0.541608L131.586 0.541606ZM123.396 13.45H132.276V11.45H123.396V13.45ZM133.117 11.9089L128.677 5.00887L126.996 6.09113L131.436 12.9911L133.117 11.9089ZM126.996 5.00887L122.556 11.9089L124.237 12.9911L128.677 6.09113L126.996 5.00887ZM160.676 -1.43051e-06V-1H159.676V-1.43051e-06H160.676ZM188.966 1.5L188.3 2.24597L188.307 2.25176L188.966 1.5ZM190.436 6.96L189.487 6.64377L189.481 6.66178L189.476 6.68L190.436 6.96ZM189.836 8.34L190.686 8.86635L190.692 8.8576L190.697 8.84873L189.836 8.34ZM188.906 9.48L189.571 10.2274L189.582 10.2174L189.593 10.207L188.906 9.48ZM187.766 10.23L187.356 9.31808L184.784 10.4752L187.51 11.1967L187.766 10.23ZM189.476 11.04L188.86 11.8275L188.879 11.8422L188.898 11.856L189.476 11.04ZM190.616 12.21L189.773 12.7469L189.787 12.7695L189.802 12.7912L190.616 12.21ZM191.246 13.53L192.214 13.2776L192.214 13.2776L191.246 13.53ZM191.006 17.49L191.947 17.8279L191.947 17.8279L191.006 17.49ZM186.986 20.61L186.752 19.6378L186.748 19.6388L186.986 20.61ZM160.676 21H159.676V22H160.676V21ZM167.876 15.3H166.876V16.3H167.876V15.3ZM183.086 15.09L182.639 14.1956L182.625 14.2023L182.612 14.2095L183.086 15.09ZM183.086 13.44L182.612 14.3205L182.625 14.3277L182.639 14.3344L183.086 13.44ZM167.876 13.23V12.23H166.876V13.23H167.876ZM167.876 7.8H166.876V8.8H167.876V7.8ZM182.336 7.59L181.889 6.69557L181.875 6.70235L181.862 6.70953L182.336 7.59ZM182.336 5.94L181.862 6.82047L181.875 6.82765L181.889 6.83443L182.336 5.94ZM167.876 5.73V4.73H166.876V5.73H167.876ZM160.676 0.999999H183.986V-1H160.676V0.999999ZM183.986 0.999999C186.053 0.999999 187.433 1.47137 188.3 2.24594L189.632 0.754061C188.26 -0.471377 186.32 -1 183.986 -1V0.999999ZM188.307 2.25176C189.203 3.03765 189.676 4.09902 189.676 5.55H191.676C191.676 3.60098 191.01 1.96235 189.626 0.74824L188.307 2.25176ZM189.676 5.55C189.676 5.89234 189.617 6.25561 189.487 6.64377L191.385 7.27623C191.575 6.70439 191.676 6.12766 191.676 5.55H189.676ZM189.476 6.68C189.36 7.07816 189.194 7.46148 188.975 7.83127L190.697 8.84873C190.999 8.33852 191.232 7.80184 191.396 7.24L189.476 6.68ZM188.986 7.81364C188.772 8.15977 188.517 8.47235 188.22 8.75299L189.593 10.207C190.016 9.80765 190.381 9.36023 190.686 8.86635L188.986 7.81364ZM188.242 8.73259C187.95 8.99175 187.655 9.18358 187.356 9.31808L188.177 11.1419C188.678 10.9164 189.142 10.6083 189.571 10.2274L188.242 8.73259ZM187.51 11.1967C188.085 11.349 188.526 11.5663 188.86 11.8275L190.092 10.2525C189.506 9.79372 188.807 9.47105 188.022 9.26329L187.51 11.1967ZM188.898 11.856C189.286 12.1306 189.57 12.4294 189.773 12.7469L191.46 11.6731C191.102 11.1106 190.627 10.6294 190.054 10.224L188.898 11.856ZM189.802 12.7912C190.038 13.1205 190.192 13.4502 190.279 13.7824L192.214 13.2776C192.06 12.6898 191.795 12.1395 191.43 11.6288L189.802 12.7912ZM190.279 13.7824C190.382 14.1796 190.426 14.5133 190.426 14.79H192.426C192.426 14.3067 192.35 13.8004 192.214 13.2776L190.279 13.7824ZM190.426 14.79C190.426 15.7205 190.298 16.5023 190.065 17.1521L191.947 17.8279C192.274 16.9177 192.426 15.8995 192.426 14.79H190.426ZM190.065 17.1521C189.849 17.7531 189.492 18.2488 188.977 18.6545L190.215 20.2255C191.02 19.5912 191.603 18.7869 191.947 17.8279L190.065 17.1521ZM188.977 18.6545C188.461 19.0614 187.735 19.4012 186.752 19.6378L187.22 21.5822C188.397 21.2988 189.411 20.8586 190.215 20.2255L188.977 18.6545ZM186.748 19.6388C185.791 19.8734 184.567 20 183.056 20V22C184.665 22 186.061 21.8666 187.224 21.5812L186.748 19.6388ZM183.056 20H160.676V22H183.056V20ZM161.676 21V-1.43051e-06H159.676V21H161.676ZM167.876 16.3H181.406V14.3H167.876V16.3ZM181.406 16.3C181.859 16.3 182.259 16.2818 182.595 16.2398C182.907 16.2008 183.263 16.1307 183.56 15.9705L182.612 14.2095C182.65 14.1893 182.595 14.2242 182.347 14.2552C182.124 14.2832 181.814 14.3 181.406 14.3V16.3ZM183.533 15.9844C184.269 15.6167 184.506 14.8978 184.506 14.25H182.506C182.506 14.3554 182.488 14.3657 182.507 14.3278C182.517 14.3069 182.535 14.2792 182.563 14.2516C182.59 14.2241 182.618 14.206 182.639 14.1956L183.533 15.9844ZM184.506 14.25C184.506 13.5962 184.251 12.9044 183.533 12.5456L182.639 14.3344C182.623 14.3263 182.598 14.3106 182.571 14.2849C182.545 14.2591 182.526 14.2315 182.513 14.2078C182.49 14.1629 182.506 14.1616 182.506 14.25H184.506ZM183.56 12.5595C183.263 12.3993 182.907 12.3292 182.595 12.2902C182.259 12.2482 181.859 12.23 181.406 12.23V14.23C181.814 14.23 182.124 14.2468 182.347 14.2748C182.595 14.3058 182.65 14.3407 182.612 14.3205L183.56 12.5595ZM181.406 12.23H167.876V14.23H181.406V12.23ZM166.876 13.23V15.3H168.876V13.23H166.876ZM167.876 8.8H180.656V6.8H167.876V8.8ZM180.656 8.8C181.109 8.8 181.509 8.78184 181.845 8.73978C182.157 8.70082 182.513 8.63073 182.81 8.47047L181.862 6.70953C181.9 6.68927 181.845 6.72418 181.597 6.75522C181.374 6.78316 181.064 6.8 180.656 6.8V8.8ZM182.783 8.48443C183.519 8.11667 183.756 7.39776 183.756 6.75H181.756C181.756 6.85535 181.738 6.86574 181.757 6.82779C181.767 6.80688 181.785 6.77917 181.813 6.75164C181.84 6.72411 181.868 6.70602 181.889 6.69557L182.783 8.48443ZM183.756 6.75C183.756 6.09619 183.501 5.40444 182.783 5.04557L181.889 6.83443C181.873 6.82626 181.848 6.81063 181.821 6.78495C181.795 6.75906 181.776 6.73147 181.763 6.70782C181.74 6.66291 181.756 6.66158 181.756 6.75H183.756ZM182.81 5.05953C182.513 4.89927 182.157 4.82918 181.845 4.79022C181.509 4.74816 181.109 4.73 180.656 4.73V6.73C181.064 6.73 181.374 6.74684 181.597 6.77478C181.845 6.80582 181.9 6.84073 181.862 6.82047L182.81 5.05953ZM180.656 4.73H167.876V6.73H180.656V4.73ZM166.876 5.73V7.8H168.876V5.73H166.876ZM201.919 5.7V4.7H200.919V5.7H201.919ZM201.919 7.8H200.919V8.8H201.919V7.8ZM222.109 7.8H223.109V6.8H222.109V7.8ZM222.109 13.2V14.2H223.109V13.2H222.109ZM201.919 13.2V12.2H200.919V13.2H201.919ZM201.919 15.3H200.919V16.3H201.919V15.3ZM223.969 15.3H224.969V14.3H223.969V15.3ZM223.969 21V22H224.969V21H223.969ZM194.719 21H193.719V22H194.719V21ZM194.719 -1.43051e-06V-1H193.719V-1.43051e-06H194.719ZM223.969 -1.43051e-06H224.969V-1H223.969V-1.43051e-06ZM223.969 5.7V6.7H224.969V5.7H223.969ZM200.919 5.7V7.8H202.919V5.7H200.919ZM201.919 8.8H222.109V6.8H201.919V8.8ZM221.109 7.8V13.2H223.109V7.8H221.109ZM222.109 12.2H201.919V14.2H222.109V12.2ZM200.919 13.2V15.3H202.919V13.2H200.919ZM201.919 16.3H223.969V14.3H201.919V16.3ZM222.969 15.3V21H224.969V15.3H222.969ZM223.969 20H194.719V22H223.969V20ZM195.719 21V-1.43051e-06H193.719V21H195.719ZM194.719 0.999999H223.969V-1H194.719V0.999999ZM222.969 -1.43051e-06V5.7H224.969V-1.43051e-06H222.969ZM223.969 4.7H201.919V6.7H223.969V4.7ZM243.689 5.7V4.7H242.689V5.7H243.689ZM243.689 21V22H244.689V21H243.689ZM236.489 21H235.489V22H236.489V21ZM236.489 5.7H237.489V4.7H236.489V5.7ZM225.029 5.7H224.029V6.7H225.029V5.7ZM225.029 -1.43051e-06V-1H224.029V-1.43051e-06H225.029ZM255.119 -1.43051e-06H256.119V-1H255.119V-1.43051e-06ZM255.119 5.7V6.7H256.119V5.7H255.119ZM242.689 5.7V21H244.689V5.7H242.689ZM243.689 20H236.489V22H243.689V20ZM237.489 21V5.7H235.489V21H237.489ZM236.489 4.7H225.029V6.7H236.489V4.7ZM226.029 5.7V-1.43051e-06H224.029V5.7H226.029ZM225.029 0.999999H255.119V-1H225.029V0.999999ZM254.119 -1.43051e-06V5.7H256.119V-1.43051e-06H254.119ZM255.119 4.7H243.689V6.7H255.119V4.7ZM264.732 5.7V4.7H263.732V5.7H264.732ZM264.732 7.8H263.732V8.8H264.732V7.8ZM284.922 7.8H285.922V6.8H284.922V7.8ZM284.922 13.2V14.2H285.922V13.2H284.922ZM264.732 13.2V12.2H263.732V13.2H264.732ZM264.732 15.3H263.732V16.3H264.732V15.3ZM286.782 15.3H287.782V14.3H286.782V15.3ZM286.782 21V22H287.782V21H286.782ZM257.532 21H256.532V22H257.532V21ZM257.532 -1.43051e-06V-1H256.532V-1.43051e-06H257.532ZM286.782 -1.43051e-06H287.782V-1H286.782V-1.43051e-06ZM286.782 5.7V6.7H287.782V5.7H286.782ZM263.732 5.7V7.8H265.732V5.7H263.732ZM264.732 8.8H284.922V6.8H264.732V8.8ZM283.922 7.8V13.2H285.922V7.8H283.922ZM284.922 12.2H264.732V14.2H284.922V12.2ZM263.732 13.2V15.3H265.732V13.2H263.732ZM264.732 16.3H286.782V14.3H264.732V16.3ZM285.782 15.3V21H287.782V15.3H285.782ZM286.782 20H257.532V22H286.782V20ZM258.532 21V-1.43051e-06H256.532V21H258.532ZM257.532 0.999999H286.782V-1H257.532V0.999999ZM285.782 -1.43051e-06V5.7H287.782V-1.43051e-06H285.782ZM286.782 4.7H264.732V6.7H286.782V4.7Z" fill="white" mask="url(#path-1-inside-1_233_27)"/>
</svg>
